<?xml version="1.0" encoding="UTF-8" standalone="no"?>
<svg
   xmlns:dc="http://purl.org/dc/elements/1.1/"
   xmlns:cc="http://creativecommons.org/ns#"
   xmlns:rdf="http://www.w3.org/1999/02/22-rdf-syntax-ns#"
   xmlns:svg="http://www.w3.org/2000/svg"
   xmlns="http://www.w3.org/2000/svg"
   xmlns:sodipodi="http://sodipodi.sourceforge.net/DTD/sodipodi-0.dtd"
   xmlns:inkscape="http://www.inkscape.org/namespaces/inkscape"
   inkscape:version="1.0 (4035a4fb49, 2020-05-01)"
   sodipodi:docname="banner.svg"
   version="1.1"
   viewBox="0 0 1202.1007 683.29935"
   height="683.29938"
   width="1202.1007"
   data-name="Layer 1"
   id="e5378a26-042d-4a36-80f1-957b4ecc48ee">
  <metadata
     id="metadata1762">
    <rdf:RDF>
      <cc:Work
         rdf:about="">
        <dc:format>image/svg+xml</dc:format>
        <dc:type
           rdf:resource="http://purl.org/dc/dcmitype/StillImage" />
      </cc:Work>
    </rdf:RDF>
  </metadata>
  <defs
     id="defs1760" />
  <sodipodi:namedview
     inkscape:current-layer="e5378a26-042d-4a36-80f1-957b4ecc48ee"
     inkscape:window-maximized="1"
     inkscape:window-y="-9"
     inkscape:window-x="-9"
     inkscape:cy="395.56679"
     inkscape:cx="793.56068"
     inkscape:zoom="0.39562014"
     showgrid="false"
     id="namedview1758"
     inkscape:window-height="1001"
     inkscape:window-width="1920"
     inkscape:pageshadow="2"
     inkscape:pageopacity="0"
     guidetolerance="10"
     gridtolerance="10"
     objecttolerance="10"
     borderopacity="1"
     bordercolor="#666666"
     pagecolor="#ffffff" />
  <rect
     style="fill:#ffffff;fill-opacity:1;stroke:none;stroke-width:11.3386;stroke-linejoin:round"
     id="rect56"
     width="1202.1007"
     height="683.29938"
     x="0"
     y="0" />
  <polygon
     style="stroke-width:1.76385"
     transform="matrix(0.56694168,0,0,0.56694168,353.33797,116.47992)"
     id="polygon1697"
     fill="#3f3d56"
     points="47.01,442.159 45.991,442.159 45.991,728.324 533.937,728.324 533.937,442.159 534.25,438.618 418.25,300.618 185.404,302.746 44.156,440.325 " />
  <polygon
     style="stroke-width:1.76385"
     transform="matrix(0.56694168,0,0,0.56694168,353.33797,116.47992)"
     id="polygon1699"
     fill="#6c63ff"
     points="533.937,438.491 418.371,300.912 273.455,470.811 273.455,728.324 533.937,728.324 " />
  <rect
     style="stroke-width:1"
     id="rect1701"
     fill="#ffffff"
     height="26.657705"
     width="30.159727"
     y="448.65976"
     x="567.65021" />
  <rect
     style="stroke-width:1"
     id="rect1703"
     fill="#ffffff"
     height="26.234959"
     width="30.159727"
     y="402.51819"
     x="567.65021" />
  <rect
     style="stroke-width:1"
     id="rect1705"
     fill="#ffffff"
     height="26.657705"
     width="30.159727"
     y="441.5863"
     x="433.61829" />
  <rect
     style="stroke-width:1"
     id="rect1707"
     fill="#ffffff"
     height="26.234959"
     width="30.159727"
     y="395.44476"
     x="433.61829" />
  <rect
     style="stroke-width:1"
     x="353.33798"
     id="rect1709"
     fill="#3f3d56"
     height="1.1338834"
     width="476.5145"
     y="528.89062" />
  <polygon
     style="stroke-width:1.76385"
     transform="matrix(0.56694168,0,0,0.56694168,353.33797,116.47992)"
     id="polygon1711"
     fill="#a0616a"
     points="713.92,695.831 717.92,715.831 697.92,719.831 700.92,694.831 " />
  <polygon
     style="stroke-width:1.76385"
     transform="matrix(0.56694168,0,0,0.56694168,353.33797,116.47992)"
     id="polygon1713"
     fill="#a0616a"
     points="776.92,691.831 771.92,716.831 747.92,716.831 757.92,686.831 " />
  <path
     style="stroke-width:1"
     id="path1715"
     fill="#2f2e41"
     d="m 806.27861,410.05997 2.26777,15.30743 -2.83471,33.44956 -2.26777,12.47271 -9.63801,40.81981 c 0,0 -10.77189,0 -12.47271,-4.53554 l 2.83471,-23.24461 c 0,0 2.26776,-18.70907 1.70082,-20.97684 -0.56694,-2.26777 -9.07107,-38.55203 -9.07107,-38.55203 0,0 -12.47271,57.26111 -14.17354,62.36358 -1.70082,5.10248 -3.96859,27.2132 -3.96859,27.2132 0,0 -9.63801,1.70083 -10.20495,0 -0.56694,-1.70082 -1.13388,-41.95368 -1.13388,-48.19004 0,-6.23636 1.13388,-9.63801 1.13388,-10.77189 0,-1.13389 -4.46671,-55.2609 -4.46671,-55.2609 z" />
  <path
     style="stroke-width:1"
     id="path1717"
     fill="#2f2e41"
     d="m 783.034,520.04666 c 0,0 2.83471,0.56694 4.53554,0 1.70082,-0.56694 0,-3.96859 0,-3.96859 h 6.23635 c 0,0 6.8033,15.30742 9.63801,16.44131 2.83471,1.13388 11.90578,13.6066 1.13389,13.6066 a 35.198909,35.198909 0 0 1 -18.70908,-5.66942 c 0,0 -1.13388,-5.10248 -6.23636,-5.66942 -5.10247,-0.56694 -8.50412,-6.8033 -8.50412,-6.8033 l 7.37024,-13.6066 c 0,0 1.70082,6.23636 4.53553,5.66942 z" />
  <path
     style="stroke-width:1"
     id="path1719"
     fill="#2f2e41"
     d="m 756.38774,519.47972 c 0,0 -1.13388,2.26776 -2.26776,1.13388 -1.13389,-1.13388 -2.26777,-3.96859 -2.26777,-3.96859 0,0 -3.40165,-1.70083 -3.96859,0 -0.56694,1.70082 -2.83471,10.77189 -3.96859,11.90577 -1.13389,1.13389 -13.03966,13.03966 -1.13389,15.30743 11.90578,2.26777 14.17355,-2.83471 14.17355,-2.83471 0,0 -1.70083,-2.83471 1.70082,-3.96859 3.40165,-1.13388 3.96859,-5.10248 3.96859,-5.10248 l -2.26776,-17.00825 c 0,0 -2.26777,5.66942 -3.9686,4.53554 z" />
  <path
     style="stroke-width:1"
     id="path1721"
     fill="#a0616a"
     d="m 819.31828,370.37406 1.70082,29.48096 c 0,0 7.93718,18.70908 -2.83471,18.14214 -10.7719,-0.56695 -3.9686,-18.70908 -3.9686,-18.70908 l -10.54644,-26.31143 z" />
  <path
     style="stroke-width:1"
     id="path1723"
     fill="#a0616a"
     d="m 732.00925,361.86993 -1.70082,29.48097 c 0,0 -7.93719,18.70907 2.8347,18.14213 10.7719,-0.56694 3.9686,-18.70907 3.9686,-18.70907 l 10.54645,-26.31144 z" />
  <circle
     style="stroke-width:1"
     id="circle1725"
     fill="#a0616a"
     r="14.740483"
     cy="283.06506"
     cx="777.36456" />
  <path
     style="stroke-width:1"
     id="path1727"
     fill="#a0616a"
     d="m 788.98689,289.01792 c 0,0 -3.96859,15.87437 3.96859,19.84296 7.93719,3.96859 -24.94543,9.63801 -27.2132,0 l 1.13388,-4.53553 c 0,0 4.53554,-5.66942 3.40165,-10.77189 z" />
  <path
     style="stroke-width:1"
     id="path1729"
     fill="#e6e6e6"
     d="m 780.19929,309.14435 c 0,0 -9.78268,0.9136 -12.8285,-5.49608 0,0 -22.88882,1.52749 -27.9913,22.50433 l 8.50413,54.42641 c 0,0 -9.07107,15.87436 -7.93719,17.57519 0,0 -5.66941,15.87436 46.48922,16.44131 l 22.67767,-1.13389 a 31.548161,31.548161 0 0 0 -0.56694,-9.63801 c -1.13389,-5.10247 -7.37024,-40.8198 -7.37024,-40.8198 0,0 17.00825,-26.64626 15.30742,-30.61485 -1.70082,-3.96859 -4.42463,-19.61661 -26.30735,-25.96614 0,0 -0.33891,3.28848 -9.97692,2.72153 z" />
  <path
     style="stroke-width:1"
     id="path1731"
     fill="#e6e6e6"
     d="m 809.11332,322.75095 7.37024,9.63801 c 0,0 7.37025,40.25286 5.10248,40.8198 -2.26776,0.56695 -15.87437,5.10248 -18.14214,3.40165 -2.26776,-1.70082 -12.47271,-35.15038 -12.47271,-35.15038 z" />
  <path
     style="stroke-width:1"
     id="path1733"
     fill="#e6e6e6"
     d="m 749.0175,319.91625 -9.63801,6.23635 c 0,0 -14.17354,39.68592 -10.20495,41.38675 3.96859,1.70082 26.07932,0.56694 26.07932,0.56694 z" />
  <path
     style="stroke-width:1"
     id="path1735"
     fill="#2f2e41"
     d="m 793.4769,269.87344 c 0,0 -5.10569,-11.06232 -14.89159,-8.50947 -9.7859,2.55284 -15.31707,6.3821 -15.74253,10.21136 -0.42547,3.82926 0.21274,9.57317 0.21274,9.57317 0,0 1.06368,-7.87127 7.87127,-6.16937 3.6208,0.9052 8.32489,0.96785 11.9356,0.82814 a 5.2119346,5.2119346 0 0 1 5.42567,5.27735 l -0.17838,12.18537 c 0,0 14.17356,-9.07107 5.36722,-23.39655 z" />
  <path
     style="stroke-width:1"
     id="path1737"
     fill="#e6e6e6"
     d="M 723.95315,274.16348 H 523.71769 a 3.7124248,3.7124248 0 0 1 -3.70805,-3.70806 V 178.5137 a 3.7124192,3.7124192 0 0 1 3.70805,-3.70805 h 200.23546 a 3.7124192,3.7124192 0 0 1 3.70806,3.70805 v 91.94172 a 3.7124248,3.7124248 0 0 1 -3.70806,3.70806 z M 523.71769,176.28887 a 2.2272644,2.2272644 0 0 0 -2.22483,2.22483 v 91.94172 a 2.2272644,2.2272644 0 0 0 2.22483,2.22483 h 200.23546 a 2.2272701,2.2272701 0 0 0 2.22484,-2.22483 V 178.5137 a 2.2272701,2.2272701 0 0 0 -2.22484,-2.22483 z" />
  <circle
     style="stroke-width:1"
     id="circle1739"
     fill="#6c63ff"
     r="15.104665"
     cy="207.3757"
     cx="553.34698" />
  <path
     style="stroke-width:1"
     id="path1741"
     fill="#e6e6e6"
     d="m 588.23157,197.30591 a 2.5174478,2.5174478 0 1 0 0,5.03489 h 118.67951 a 2.517445,2.517445 0 0 0 0,-5.03489 z" />
  <path
     style="stroke-width:1"
     id="path1743"
     fill="#e6e6e6"
     d="m 588.23157,212.41057 a 2.5174478,2.5174478 0 1 0 0,5.03489 h 51.06815 a 2.5174478,2.5174478 0 1 0 0,-5.03489 z" />
  <path
     style="stroke-width:1"
     id="path1745"
     fill="#e6e6e6"
     d="m 541.76131,236.55855 c -1.91497,0 -3.4733,1.12948 -3.4733,2.51745 0,1.38797 1.55833,2.51744 3.4733,2.51744 h 163.74121 c 1.91497,0 3.4733,-1.12948 3.4733,-2.51744 0,-1.38797 -1.55833,-2.51745 -3.4733,-2.51745 z" />
  <path
     style="stroke-width:1"
     id="path1747"
     fill="#e6e6e6"
     d="m 541.76131,251.66321 c -1.91497,0 -3.4733,1.12948 -3.4733,2.51745 0,1.38797 1.55833,2.51744 3.4733,2.51744 h 163.74121 c 1.91497,0 3.4733,-1.12947 3.4733,-2.51744 0,-1.38796 -1.55833,-2.51745 -3.4733,-2.51745 z" />
  <circle
     style="stroke-width:1"
     id="circle1749"
     fill="#6c63ff"
     r="26.862898"
     cy="143.34283"
     cx="687.89001" />
  <polygon
     style="stroke-width:1.76385"
     transform="matrix(0.56694168,0,0,0.56694168,353.33797,116.47992)"
     id="polygon1751"
     fill="#6c63ff"
     points="619.73,73.086 604.915,98.747 590.1,124.408 575.284,98.747 560.469,73.086 590.1,73.086 " />
  <circle
     style="stroke-width:1"
     id="circle1753"
     fill="#ffffff"
     r="9.6380081"
     cy="143.17514"
     cx="688.10663" />
  <ellipse
     style="stroke-width:1"
     id="ellipse1755"
     fill="#a0616a"
     ry="2.8347085"
     rx="2.2677667"
     cy="283.06506"
     cx="789.24359" />
</svg>
