<?xml version="1.0" encoding="UTF-8" standalone="no"?>
<svg
   xmlns:dc="http://purl.org/dc/elements/1.1/"
   xmlns:cc="http://creativecommons.org/ns#"
   xmlns:rdf="http://www.w3.org/1999/02/22-rdf-syntax-ns#"
   xmlns:svg="http://www.w3.org/2000/svg"
   xmlns="http://www.w3.org/2000/svg"
   id="svg3719"
   version="1.1"
   viewBox="0 0 210 297"
   height="297mm"
   width="210mm">
  <defs
     id="defs3713" />
  <metadata
     id="metadata3716">
    <rdf:RDF>
      <cc:Work
         rdf:about="">
        <dc:format>image/svg+xml</dc:format>
        <dc:type
           rdf:resource="http://purl.org/dc/dcmitype/StillImage" />
        <dc:title></dc:title>
      </cc:Work>
    </rdf:RDF>
  </metadata>
  <g
     id="layer1">
    <path
       id="path4595"
       d="m 134.32864,106.48268 c -52.919361,12.2944 -62.165868,40.31184 -62.165868,40.31184 3.916076,10.82149 11.10522,8.96291 16.756127,7.42497 0,0 14.835561,-26.45833 55.090031,-33.07291 1.62609,-7.29421 3.22129,-14.70461 -9.68029,-14.6639 z"
       style="fill:none;stroke:#000000;stroke-width:0.26458332px;stroke-linecap:butt;stroke-linejoin:miter;stroke-opacity:1" />
    <path
       id="path4603"
       d="m 73.374628,149.54204 c 0,0 8.089942,-29.46954 60.954012,-43.05936"
       style="fill:none;stroke:#000000;stroke-width:0.26458332px;stroke-linecap:butt;stroke-linejoin:miter;stroke-opacity:1" />
    <path
       id="path4609"
       d="m 74.744791,151.85714 c 0,0 11.633469,-32.72958 59.583849,-45.37446"
       style="fill:none;stroke:#000000;stroke-width:0.26458332px;stroke-linecap:butt;stroke-linejoin:miter;stroke-opacity:1" />
    <path
       id="path4611"
       d="m 76.923885,153.86346 c 0,0 13.257337,-34.96279 59.842895,-47.24702"
       style="fill:none;stroke:#000000;stroke-width:0.26458332px;stroke-linecap:butt;stroke-linejoin:miter;stroke-opacity:1" />
    <path
       id="path4613"
       d="m 88.918898,154.21949 c 0,0 20.505212,-37.13616 56.223962,-39.593"
       style="fill:none;stroke:#000000;stroke-width:0.26458332px;stroke-linecap:butt;stroke-linejoin:miter;stroke-opacity:1" />
    <path
       id="path4615"
       d="m 86.769158,154.75102 c 0,0 16.879352,-38.40694 58.267742,-41.99772"
       style="fill:none;stroke:#000000;stroke-width:0.26458332px;stroke-linecap:butt;stroke-linejoin:miter;stroke-opacity:1" />
    <path
       id="path4619"
       d="m 84.572172,155.16443 c 0,0 13.701636,-39.21503 59.814728,-44.60119"
       style="fill:none;stroke:#000000;stroke-width:0.26458332px;stroke-linecap:butt;stroke-linejoin:miter;stroke-opacity:1" />
    <path
       id="path4621"
       d="m 82.280691,155.40067 c 0,0 12.55219,-40.80186 60.744159,-46.66049"
       style="fill:none;stroke:#000000;stroke-width:0.26458332px;stroke-linecap:butt;stroke-linejoin:miter;stroke-opacity:1" />
    <path
       id="path4623"
       d="m 79.847468,155.06994 c 0,0 14.307742,-38.96496 60.137352,-47.94189"
       style="fill:none;stroke:#000000;stroke-width:0.26458332px;stroke-linecap:butt;stroke-linejoin:miter;stroke-opacity:1" />
    <path
       id="path4625"
       d="m 144.98631,116.10173 c -0.26727,0 -25.11593,1.82769 -43.69116,24.07787"
       style="fill:none;stroke:#000000;stroke-width:0.26458332px;stroke-linecap:butt;stroke-linejoin:miter;stroke-opacity:1" />
    <path
       id="path4627"
       d="m 144.69542,117.68577 c 0,0 -17.72376,0.56 -38.92351,19.01933"
       style="fill:none;stroke:#000000;stroke-width:0.26458332px;stroke-linecap:butt;stroke-linejoin:miter;stroke-opacity:1" />
    <path
       id="path4631"
       d="m 144.39236,119.3994 c 0,0 -10.89123,-0.13364 -32.87415,13.49711"
       style="fill:none;stroke:#000000;stroke-width:0.26458332px;stroke-linecap:butt;stroke-linejoin:miter;stroke-opacity:1" />
    <path
       id="path4637"
       d="M 93.029364,149.07106 C 78.129089,147.06654 76.709711,138.29725 76.709711,138.29725 l 3.557535,-4.33977 c 0,0 1.419378,8.32114 17.054645,10.19202 z"
       style="fill:#000000;stroke:#000000;stroke-width:1;stroke-linecap:butt;stroke-linejoin:round;stroke-miterlimit:4;stroke-dasharray:none;stroke-opacity:1;fill-opacity:1" />
    <path
       id="path4637-2"
       d="m 124.49134,126.40705 c -5.29831,-10.88176 -3.86927,-16.13334 -4.79311,-15.95063 l 5.06225,-1.58178 c 1.58023,-0.8715 1.36142,5.90495 6.04072,15.39322 z"
       style="fill:#000000;fill-opacity:1;stroke:#000000;stroke-width:0.94854742;stroke-linecap:butt;stroke-linejoin:round;stroke-miterlimit:4;stroke-dasharray:none;stroke-opacity:1" />
    <path
       transform="scale(0.26458333)"
       id="path4792"
       d="m 350.08608,539.55337 c -2.12121,-0.53294 -3.90657,-1.0188 -3.96747,-1.0797 -0.2552,-0.2552 7.71117,-11.24877 12.75009,-17.5951 23.77359,-29.94191 52.61193,-54.02513 85.86196,-71.70429 4.93647,-2.62474 10.42646,-5.31984 10.83666,-5.31984 0.20774,0 2.20949,6.80585 2.03848,6.93071 -0.0426,0.0311 -1.66838,0.88622 -3.61292,1.90032 -24.278,12.66123 -45.52417,28.21942 -65.87981,48.24259 -11.5285,11.34022 -21.75732,23.0152 -31.11731,35.5167 l -3.05293,4.07759 z"
       style="fill:#173dde;fill-opacity:0.60000002;fill-rule:nonzero;stroke:#000000;stroke-width:0.95447487;stroke-linecap:round;stroke-linejoin:round;stroke-miterlimit:4;stroke-dasharray:none;stroke-opacity:1" />
    <path
       transform="scale(0.26458333)"
       id="path4794"
       d="m 483.43361,436.34033 c -0.47511,-1.63142 -0.91034,-3.10022 -0.96717,-3.264 -0.066,-0.19026 1.61368,-0.85831 4.65192,-1.85016 13.556,-4.42543 28.18742,-8.0116 42.63596,-10.45009 5.0767,-0.8568 14.33888,-2.17545 15.28033,-2.17545 0.54337,0 1.08887,1.27111 1.77673,4.14011 0.71767,2.99332 0.76875,2.86441 -1.21029,3.05439 -18.97056,1.82101 -37.03671,5.61763 -55.39373,11.64106 -3.13877,1.02991 -5.75254,1.87207 -5.80838,1.87147 -0.0558,-6.1e-4 -0.49025,-1.33591 -0.96537,-2.96733 z"
       style="fill:#173dde;fill-opacity:0.6;fill-rule:nonzero;stroke:#000000;stroke-width:0.95447487;stroke-linecap:round;stroke-linejoin:round;stroke-miterlimit:4;stroke-dasharray:none;stroke-opacity:1" />
    <path
       transform="scale(0.26458333)"
       id="path4796"
       d="m 321.16261,584.15095 c 1.29945,-3.45233 4.13231,-9.62466 7.39703,-16.11694 3.10237,-6.16942 3.44682,-6.74603 3.93378,-6.58526 0.29353,0.0969 1.85654,0.52672 3.47336,0.95512 l 2.93968,0.77892 -3.04076,5.30126 c -2.58769,4.51137 -7.97222,14.71585 -8.2935,15.71741 -0.0901,0.28071 -5.48787,1.57228 -6.59247,1.57741 -0.38679,0.002 -0.36818,-0.16389 0.18288,-1.62792 z"
       style="fill:#173dde;fill-opacity:0.6;fill-rule:nonzero;stroke:#000000;stroke-width:0.95447487;stroke-linecap:round;stroke-linejoin:round;stroke-miterlimit:4;stroke-dasharray:none;stroke-opacity:1" />
    <path
       transform="scale(0.26458333)"
       id="path4798"
       d="m 311.80562,586.62091 c 2.2e-4,-0.18484 1.53427,-4.27263 2.76431,-7.36608 2.05947,-5.1794 4.14536,-9.84265 7.01399,-15.68055 1.85672,-3.7786 2.50599,-4.94518 2.71491,-4.87806 0.15103,0.0485 1.6934,0.58416 3.42749,1.19032 l 3.15289,1.10212 -1.06889,1.99023 c -3.01687,5.6173 -7.12796,14.33857 -9.35331,19.84213 -1.48623,3.67563 -1.11659,3.34953 -4.14199,3.65402 -1.694,0.17049 -4.50954,0.26156 -4.5094,0.14587 z"
       style="fill:#173dde;fill-opacity:0.6;fill-rule:nonzero;stroke:#000000;stroke-width:0.67491567;stroke-linecap:round;stroke-linejoin:round;stroke-miterlimit:4;stroke-dasharray:none;stroke-opacity:1" />
    <path
       transform="scale(0.26458333)"
       id="path4800"
       d="m 340.91556,536.86103 c -1.80564,-0.63352 -3.32134,-1.1865 -3.36821,-1.22885 -0.12834,-0.11597 5.61943,-8.58936 8.58782,-12.66021 25.3506,-34.76581 57.32283,-62.27215 94.7855,-81.54583 5.58274,-2.8722 12.74407,-6.2619 12.89996,-6.106 0.046,0.046 0.36143,1.38602 0.70097,2.97783 0.33954,1.59181 0.68938,3.17831 0.77743,3.52555 0.15379,0.60645 -0.0917,0.75772 -6.22525,3.8367 -34.49779,17.31741 -64.91525,41.9475 -89.55089,72.51251 -4.12625,5.11937 -9.40644,12.14718 -12.50806,16.64796 -1.22039,1.77092 -2.35331,3.21363 -2.51759,3.20603 -0.16427,-0.008 -1.77603,-0.53217 -3.58168,-1.16569 z"
       style="fill:#173dde;fill-opacity:0.6;fill-rule:nonzero;stroke:#000000;stroke-width:0.95447487;stroke-linecap:round;stroke-linejoin:round;stroke-miterlimit:4;stroke-dasharray:none;stroke-opacity:1" />
    <path
       transform="scale(0.26458333)"
       id="path4804"
       d="m 481.8642,430.99092 c -0.0783,-0.36184 -0.47762,-1.87844 -0.88731,-3.37022 l -0.7449,-2.71233 3.57785,-1.1307 c 16.74928,-5.29322 33.54771,-9.00251 53.20159,-11.74752 l 3.40926,-0.47616 1.24393,1.3083 c 1.30017,1.36744 3.26558,4.20658 3.05666,4.4155 -0.0666,0.0666 -2.14112,0.39113 -4.60997,0.72112 -18.09294,2.41831 -36.59282,6.60525 -53.16656,12.03277 l -4.93814,1.61713 z"
       style="fill:#173dde;fill-opacity:0.6;fill-rule:nonzero;stroke:#000000;stroke-width:0.95447487;stroke-linecap:round;stroke-linejoin:round;stroke-miterlimit:4;stroke-dasharray:none;stroke-opacity:1" />
    <path
       transform="scale(0.26458333)"
       id="path4806"
       d="m 334.09704,534.21643 c -0.97228,-0.42815 -1.85821,-0.86178 -1.96874,-0.96361 -0.34908,-0.32161 7.39103,-10.76633 13.85649,-18.69832 20.58763,-25.25745 45.20743,-47.39425 71.82864,-64.58449 9.66501,-6.24103 19.10686,-11.63561 29.23098,-16.70105 l 6.05568,-3.02986 0.29609,1.7929 c 0.16285,0.98609 0.20671,1.86577 0.0975,1.95485 -0.10924,0.0891 -1.67596,0.83668 -3.48161,1.66133 -23.17996,10.58643 -48.89878,27.64763 -67.17107,44.55956 -17.56336,16.25577 -31.15301,32.00724 -43.48918,50.40734 -1.62062,2.41726 -3.06817,4.39159 -3.21678,4.38741 -0.14862,-0.004 -1.0657,-0.35791 -2.03797,-0.78606 z"
       style="fill:#173dde;fill-opacity:0.6;fill-rule:nonzero;stroke:#000000;stroke-width:0.95447487;stroke-linecap:round;stroke-linejoin:round;stroke-miterlimit:4;stroke-dasharray:none;stroke-opacity:1" />
    <path
       transform="scale(0.26458333)"
       id="path4808"
       d="m 479.57651,422.35825 c -0.20948,-0.70538 -0.44967,-1.64927 -0.53376,-2.09752 l -0.1529,-0.815 4.88026,-1.71024 c 12.36852,-4.33443 26.28461,-8.2076 39.95249,-11.1197 l 5.27272,-1.12342 1.79834,0.64119 c 2.41841,0.86228 5.65224,2.44814 7.11981,3.49154 1.41533,1.00627 1.60133,0.91363 -3.04862,1.51833 -15.27903,1.98695 -33.90055,6.10075 -49.70211,10.98004 -2.70259,0.83451 -4.9794,1.5173 -5.05958,1.5173 -0.0802,0 -0.31717,-0.57713 -0.52665,-1.28252 z"
       style="fill:#173dde;fill-opacity:0.6;fill-rule:nonzero;stroke:#000000;stroke-width:0.95447487;stroke-linecap:round;stroke-linejoin:round;stroke-miterlimit:4;stroke-dasharray:none;stroke-opacity:1" />
    <path
       transform="scale(0.26458333)"
       id="path4810"
       d="m 307.58053,586.61894 c -3.95465,-0.50647 -4.92449,-0.68157 -4.92449,-0.88906 0,-0.75505 3.43522,-8.36839 6.85988,-15.20325 2.128,-4.24703 7.54361,-14.36107 7.89326,-14.74124 0.0299,-0.0325 1.18312,0.44989 2.56273,1.07199 1.3796,0.6221 2.5995,1.16205 2.71087,1.19989 0.11138,0.0378 -0.89239,2.33967 -2.2306,5.11519 -3.27819,6.79916 -6.16948,13.44999 -8.23196,18.93599 l -1.70896,4.54569 -1.08656,0.0309 c -0.5976,0.017 -1.42748,-0.0127 -1.84417,-0.0661 z"
       style="fill:#173dde;fill-opacity:0.6;fill-rule:nonzero;stroke:#000000;stroke-width:0.95447487;stroke-linecap:round;stroke-linejoin:round;stroke-miterlimit:4;stroke-dasharray:none;stroke-opacity:1" />
    <path
       transform="scale(0.26458333)"
       id="path4812"
       d="m 329.3149,583.43428 c 0.72166,-2.32458 10.49098,-19.89291 11.05559,-19.88144 0.1609,0.003 1.67627,0.26177 3.36749,0.57444 l 3.07496,0.56849 -3.32749,5.07796 c -1.83013,2.79288 -4.35001,6.77735 -5.59975,8.85439 l -2.27224,3.77643 -3.06385,0.79897 c -1.68511,0.43943 -3.14198,0.79897 -3.23747,0.79897 -0.0955,0 -0.0943,-0.2557 0.003,-0.56821 z"
       style="fill:#173dde;fill-opacity:0.6;fill-rule:nonzero;stroke:#000000;stroke-width:0.95447487;stroke-linecap:round;stroke-linejoin:round;stroke-miterlimit:4;stroke-dasharray:none;stroke-opacity:1" />
    <path
       transform="scale(0.26458333)"
       id="path4814"
       d="m 362.76011,542.14102 c -2.4587,-0.39129 -7.14606,-1.31337 -7.26104,-1.42835 -0.16112,-0.16112 4.28622,-6.09931 8.72331,-11.64758 25.2145,-31.52893 56.63132,-57.85323 89.07721,-74.63818 l 4.80277,-2.48458 1.11836,3.39309 c 0.6151,1.8662 1.06762,3.43513 1.0056,3.48652 -0.062,0.0514 -1.70374,0.9837 -3.64829,2.0718 -22.53479,12.60974 -43.88219,29.01827 -64.5524,49.61771 -9.91109,9.87717 -15.22382,15.66256 -23.43156,25.51619 -2.02806,2.43476 -4.02831,4.82891 -4.445,5.32034 -0.57544,0.67868 -0.90942,0.86936 -1.38896,0.79304 z"
       style="fill:#173dde;fill-opacity:0.6;fill-rule:nonzero;stroke:#000000;stroke-width:0.95447487;stroke-linecap:round;stroke-linejoin:round;stroke-miterlimit:4;stroke-dasharray:none;stroke-opacity:1" />
    <path
       transform="scale(0.26458333)"
       id="path4816"
       d="m 486.62028,446.29879 c -0.90143,-2.42547 -1.84265,-5.62508 -1.69507,-5.76228 0.29725,-0.27633 11.45638,-3.88339 15.88946,-5.13608 14.09987,-3.98429 32.10797,-7.36364 44.59365,-8.36831 l 2.20971,-0.17781 0.002,0.85548 c 7.6e-4,0.47051 0.073,1.77355 0.16037,2.89563 l 0.15885,2.04016 -3.38023,0.30862 c -12.21991,1.11568 -24.6604,3.36676 -36.58899,6.62069 -4.4496,1.21378 -15.86186,4.93356 -19.51929,6.36223 -1.24234,0.48529 -1.74696,0.58502 -1.82997,0.36167 z"
       style="fill:#173dde;fill-opacity:0.6;fill-rule:nonzero;stroke:#000000;stroke-width:0.95447487;stroke-linecap:round;stroke-linejoin:round;stroke-miterlimit:4;stroke-dasharray:none;stroke-opacity:1" />
    <path
       transform="scale(0.26458333)"
       id="path4818"
       d="m 488.29191,450.8887 c -1.29633,-3.39474 -1.37768,-3.07927 1.03302,-4.00569 11.45331,-4.40146 26.36469,-8.46623 38.85598,-10.59197 4.88783,-0.8318 13.47318,-1.93184 17.14133,-2.19631 l 2.37616,-0.17133 -0.16141,2.09306 c -0.0888,1.15119 -0.19208,2.12171 -0.22958,2.15673 -0.0375,0.035 -1.60236,0.24896 -3.47745,0.47544 -14.51747,1.75347 -32.68639,6.31198 -49.47551,12.4132 -2.83529,1.03035 -5.18342,1.87337 -5.21806,1.87337 -0.0346,0 -0.41466,-0.92093 -0.84448,-2.0465 z"
       style="fill:#173dde;fill-opacity:0.6;fill-rule:nonzero;stroke:#000000;stroke-width:0.95447487;stroke-linecap:round;stroke-linejoin:round;stroke-miterlimit:4;stroke-dasharray:none;stroke-opacity:1" />
    <path
       transform="scale(0.26458333)"
       id="path4822"
       d="m 366.10624,542.65386 c -0.5903,-0.0532 -1.07328,-0.18983 -1.07328,-0.3037 0,-0.21662 6.93614,-8.6164 9.81469,-11.88576 22.42923,-25.47428 45.44343,-45.5869 69.98736,-61.16347 6.15538,-3.90646 15.83369,-9.50812 15.99835,-9.25962 0.37069,0.55941 1.88144,4.90625 1.72348,4.95891 -0.63692,0.2123 -9.97897,5.42845 -13.49512,7.53502 -17.42655,10.44046 -31.75582,21.35809 -46.89602,35.7306 -5.77994,5.48685 -14.01579,14.26526 -18.71274,19.94546 -0.75552,0.91369 -2.78798,2.90242 -4.51656,4.41942 -1.72859,1.517 -4.9321,4.4344 -7.11893,6.48311 -2.18682,2.04872 -4.12497,3.70509 -4.30699,3.68082 -0.18202,-0.0243 -0.81393,-0.0876 -1.40424,-0.14079 z"
       style="fill:#173dde;fill-opacity:0.6;fill-rule:nonzero;stroke:#000000;stroke-width:0.95447487;stroke-linecap:round;stroke-linejoin:round;stroke-miterlimit:4;stroke-dasharray:none;stroke-opacity:1" />
    <path
       transform="scale(0.26458333)"
       id="path4824"
       d="m 388.519,524.2745 c 0,-0.29089 4.40357,-5.03516 9.33775,-10.06018 17.69432,-18.0201 38.22053,-33.48614 60.66759,-45.71168 2.45943,-1.33951 4.51783,-2.43546 4.57422,-2.43546 0.15358,0 2.02906,4.54367 1.91318,4.63504 -0.055,0.0433 -1.23637,0.68191 -2.62533,1.41902 -18.60696,9.87467 -40.4649,24.94632 -58.96766,40.65983 -1.7362,1.47447 -4.34997,3.57943 -5.80837,4.6777 -2.21297,1.66649 -3.80916,2.89622 -8.7757,6.76092 -0.17362,0.1351 -0.31568,0.15977 -0.31568,0.0548 z"
       style="fill:#173dde;fill-opacity:0.6;fill-rule:nonzero;stroke:#000000;stroke-width:0.95447487;stroke-linecap:round;stroke-linejoin:round;stroke-miterlimit:4;stroke-dasharray:none;stroke-opacity:1" />
    <path
       transform="scale(0.26458333)"
       id="path4826"
       d="m 491.06408,457.90142 c -0.11504,-0.30074 -0.50612,-1.2762 -0.86907,-2.16768 -0.36295,-0.89148 -0.63169,-1.64325 -0.5972,-1.6706 0.0345,-0.0273 2.27874,-0.84868 4.98721,-1.82518 11.72205,-4.22621 22.48754,-7.32947 33.84011,-9.75474 7.24575,-1.54792 18.2203,-3.23171 18.5985,-2.85351 0.0868,0.0868 1.9e-4,1.15573 -0.1925,2.37538 l -0.35034,2.21754 -1.13601,0.0704 c -0.62481,0.0387 -2.87326,0.29661 -4.99657,0.57304 -13.17856,1.7157 -29.09399,5.94602 -44.45175,11.81527 -4.53846,1.73446 -4.62704,1.75683 -4.83238,1.22004 z"
       style="fill:#173dde;fill-opacity:0.6;fill-rule:nonzero;stroke:#000000;stroke-width:0.95447487;stroke-linecap:round;stroke-linejoin:round;stroke-miterlimit:4;stroke-dasharray:none;stroke-opacity:1" />
    <path
       transform="scale(0.26458333)"
       id="path4828"
       d="m 492.93867,462.18182 c -0.5117,-1.12711 -0.98353,-2.18024 -1.04852,-2.34029 -0.0724,-0.17826 1.13619,-0.7796 3.11926,-1.55206 16.79071,-6.54037 35.13778,-11.28475 48.94682,-12.6572 1.25006,-0.12424 2.28156,-0.20813 2.29221,-0.18642 0.0107,0.0217 -0.20375,1.18977 -0.47647,2.59568 l -0.49584,2.55621 -3.05907,0.30595 c -11.92067,1.19224 -29.61764,5.94069 -45.53438,12.21779 l -2.81366,1.10962 z"
       style="fill:#173dde;fill-opacity:0.6;fill-rule:nonzero;stroke:#000000;stroke-width:0.95447487;stroke-linecap:round;stroke-linejoin:round;stroke-miterlimit:4;stroke-dasharray:none;stroke-opacity:1" />
    <path
       transform="scale(0.26458333)"
       id="path4830"
       d="m 495.12015,466.89731 -0.78889,-1.59978 0.69509,-0.27099 c 17.80277,-6.94069 33.71249,-11.36571 45.95658,-12.78204 1.97598,-0.22857 3.66979,-0.33849 3.76402,-0.24426 0.0942,0.0942 -0.0856,1.34206 -0.39961,2.77294 l -0.57095,2.60161 -3.44562,0.5834 c -12.36971,2.09437 -30.05709,6.20443 -41.30064,9.59713 l -3.12109,0.94177 z"
       style="fill:#173dde;fill-opacity:0.6;fill-rule:nonzero;stroke:#000000;stroke-width:0.95447487;stroke-linecap:round;stroke-linejoin:round;stroke-miterlimit:4;stroke-dasharray:none;stroke-opacity:1" />
    <path
       transform="scale(0.26458333)"
       id="path4832"
       d="m 414.27789,505.4305 c 0.48614,-0.42335 3.78176,-2.94727 7.32361,-5.60871 10.5895,-7.95725 20.06502,-14.31577 30.80965,-20.67472 5.51195,-3.26212 12.71796,-7.27151 13.06895,-7.27151 0.12642,0 0.6392,0.9102 1.13951,2.02268 l 0.90965,2.02268 -5.22308,2.63746 c -12.21995,6.17061 -32.46098,17.61445 -44.53776,25.18068 -2.17862,1.36493 -4.05411,2.47706 -4.16776,2.47142 -0.11366,-0.006 0.1911,-0.35664 0.67723,-0.77998 z"
       style="fill:#173dde;fill-opacity:0.6;fill-rule:nonzero;stroke:#000000;stroke-width:0.95447487;stroke-linecap:round;stroke-linejoin:round;stroke-miterlimit:4;stroke-dasharray:none;stroke-opacity:1" />
    <path
       transform="scale(0.26458333)"
       id="path4836"
       d="m 451.73283,485.3518 c 0,-0.027 2.26389,-1.24082 5.01919,-2.69102 2.35045,-1.23712 9.12744,-4.68835 10.3389,-5.26516 l 0.99498,-0.47374 0.28743,0.57232 c 0.15809,0.31477 0.27728,0.58246 0.26488,0.59486 -0.0124,0.0124 -0.95882,0.40439 -2.10316,0.87109 -4.82836,1.96915 -8.81223,3.69159 -13.44118,5.81133 -1.35617,0.62104 -1.36104,0.62312 -1.36104,0.58032 z"
       style="fill:#173dde;fill-opacity:0.6;fill-rule:nonzero;stroke:#000000;stroke-width:0.23861872;stroke-linecap:round;stroke-linejoin:round;stroke-miterlimit:4;stroke-dasharray:none;stroke-opacity:1" />
    <path
       transform="scale(0.26458333)"
       id="path4838"
       d="m 297.6546,584.30002 c -3.53399,-1.39443 -5.82198,-2.78781 -5.82198,-3.54557 0,-1.66453 14.13884,-28.26856 16.02685,-30.15657 0.2118,-0.21179 0.93471,0.0735 1.9417,0.76636 0.88236,0.60708 2.72047,1.70957 4.08471,2.44999 l 2.48043,1.34622 -1.93235,3.39286 c -2.66606,4.68113 -9.26427,17.90658 -11.35895,22.76786 -1.16397,2.70133 -1.91446,4.01382 -2.29039,4.00556 -0.30753,-0.007 -1.71604,-0.46878 -3.13002,-1.02671 z"
       style="fill:#173dde;fill-opacity:0.6;fill-rule:nonzero;stroke:#000000;stroke-width:1.34983134;stroke-linecap:round;stroke-linejoin:round;stroke-miterlimit:4;stroke-dasharray:none;stroke-opacity:1" />
    <path
       transform="scale(0.26458333)"
       id="path4840"
       d="m 286.64896,576.98669 -3.38519,-3.35233 0.57366,-1.37981 c 1.58437,-3.81091 4.41676,-9.72 6.65299,-13.87981 2.86797,-5.33497 8.42984,-14.74515 8.87928,-15.02292 0.16701,-0.10322 1.31235,0.74364 2.54518,1.88191 1.23284,1.13827 2.86752,2.56455 3.63263,3.16952 l 1.39111,1.09995 -2.66979,4.43577 c -1.46839,2.43967 -3.65341,6.20362 -4.85561,8.36434 -2.50927,4.50991 -8.65203,17.0277 -8.65203,17.63121 0,0.88651 -0.87029,0.26264 -4.11223,-2.94783 z"
       style="fill:#173dde;fill-opacity:0.6;fill-rule:nonzero;stroke:#000000;stroke-width:1.34983134;stroke-linecap:round;stroke-linejoin:round;stroke-miterlimit:4;stroke-dasharray:none;stroke-opacity:1" />
    <path
       transform="scale(0.26458333)"
       id="path4842"
       d="m 282.08449,571.888 c -0.10224,-0.16444 -1.07623,-1.71632 -2.16442,-3.44862 l -1.97854,-3.14965 1.05335,-2.98434 c 1.31221,-3.71778 4.48385,-10.75788 6.66687,-14.79847 1.85769,-3.43842 7.24365,-12.52504 7.42404,-12.52504 0.0644,0 0.48872,0.60268 0.94287,1.33929 0.45415,0.7366 1.67872,2.3461 2.72126,3.57665 l 1.89553,2.23738 -1.03528,1.51262 c -3.41359,4.98751 -11.68354,20.31694 -14.01407,25.97692 -0.90614,2.20067 -1.23986,2.70033 -1.51161,2.26326 z"
       style="fill:#173dde;fill-opacity:0.6;fill-rule:nonzero;stroke:#000000;stroke-width:1.34983134;stroke-linecap:round;stroke-linejoin:round;stroke-miterlimit:4;stroke-dasharray:none;stroke-opacity:1" />
    <path
       transform="scale(0.26458333)"
       id="path4844"
       d="m 276.01046,561.1355 c -1.92177,-4.30603 -2.44362,-5.94571 -2.23884,-7.03447 0.24248,-1.28914 4.01936,-9.13216 6.45592,-13.40627 2.20643,-3.87043 8.17821,-13.03934 8.70444,-13.36457 0.22035,-0.13618 0.40064,-0.0617 0.40064,0.16552 0,0.22723 0.6616,1.74829 1.47022,3.38015 l 1.47021,2.96702 -2.30767,3.6945 c -4.49863,7.20214 -10.45962,19.06367 -12.03975,23.95738 -0.23696,0.73387 -0.55931,1.41372 -0.71633,1.51076 -0.15703,0.097 -0.6965,-0.74446 -1.19884,-1.87002 z"
       style="fill:#173dde;fill-opacity:0.6;fill-rule:nonzero;stroke:#000000;stroke-width:1.34983134;stroke-linecap:round;stroke-linejoin:round;stroke-miterlimit:4;stroke-dasharray:none;stroke-opacity:1" />
    <path
       transform="scale(0.26458333)"
       id="path4846"
       d="m 307.02026,510.55143 c -1.77423,-3.97245 -2.05698,-3.3498 4.50664,-9.92439 30.90702,-30.95868 72.84215,-56.57911 124.3778,-75.9891 4.26161,-1.60506 7.91679,-2.86215 8.12262,-2.79354 0.20584,0.0686 -2.0118,1.07236 -4.92808,2.23056 -13.87923,5.5121 -33.29318,14.62815 -46.00169,21.60064 -23.21933,12.73921 -43.72553,27.0428 -61.08636,42.60928 -5.17294,4.63828 -16.55259,16.02682 -21.32319,21.33986 l -2.72578,3.03571 z"
       style="fill:#173dde;fill-opacity:0.6;fill-rule:nonzero;stroke:#000000;stroke-width:1.34983134;stroke-linecap:round;stroke-linejoin:round;stroke-miterlimit:4;stroke-dasharray:none;stroke-opacity:1" />
    <path
       transform="scale(0.26458333)"
       id="path4848"
       d="m 312.2768,518.64259 c -2.32534,-2.80158 -3.39778,-4.62425 -3.06483,-5.20883 1.44285,-2.53326 18.44357,-19.74662 26.01351,-26.3389 26.52368,-23.09811 58.73488,-42.61598 97.28122,-58.94604 3.21896,-1.3637 6.00017,-2.43029 6.18047,-2.37019 0.1803,0.0601 -2.53376,1.45841 -6.03123,3.10736 -28.25646,13.32204 -54.8716,30.26819 -77.06031,49.06514 -14.03899,11.89299 -28.20583,26.17937 -38.5802,38.90575 -1.56123,1.91518 -2.94929,3.48214 -3.08459,3.48214 -0.13529,0 -0.87962,-0.76339 -1.65404,-1.69643 z"
       style="fill:#173dde;fill-opacity:0.6;fill-rule:nonzero;stroke:#000000;stroke-width:1.34983134;stroke-linecap:round;stroke-linejoin:round;stroke-miterlimit:4;stroke-dasharray:none;stroke-opacity:1" />
    <path
       transform="scale(0.26458333)"
       id="path4850"
       d="m 319.14452,525.21655 c -4.7752,-3.79876 -4.66208,-3.21931 -1.40986,-7.22163 7.98952,-9.83225 23.08833,-25.52471 32.49082,-33.76828 28.39037,-24.89107 59.33642,-44.28112 95.48694,-59.82985 3.41068,-1.46696 6.24198,-2.61848 6.29177,-2.55892 0.0498,0.0596 0.17204,0.86728 0.27165,1.79493 0.16013,1.49117 0.0932,1.71303 -0.57748,1.91441 -1.46533,0.43997 -18.67561,9.07708 -24.15145,12.12059 -24.24444,13.47522 -45.95902,28.95909 -65.74066,46.87725 -11.75439,10.64708 -26.58492,26.4681 -35.56363,37.93883 -2.13086,2.72226 -3.95893,4.96047 -4.06239,4.97378 -0.10345,0.0133 -1.46952,-0.99518 -3.03571,-2.24111 z"
       style="fill:#173dde;fill-opacity:0.6;fill-rule:nonzero;stroke:#000000;stroke-width:1.34983134;stroke-linecap:round;stroke-linejoin:round;stroke-miterlimit:4;stroke-dasharray:none;stroke-opacity:1" />
    <path
       transform="scale(0.26458333)"
       id="path4852"
       d="m 328.61834,531.50036 c -0.88393,-0.50053 -2.46174,-1.43354 -3.50624,-2.07334 l -1.8991,-1.16328 4.98684,-6.1945 c 2.74276,-3.40698 6.88221,-8.36415 9.19877,-11.01593 5.60599,-6.41721 23.00384,-23.7795 29.25544,-29.19565 20.17839,-17.4818 39.64826,-31.05773 62.85714,-43.82897 5.36625,-2.9529 22.06579,-11.2611 22.63491,-11.2611 0.59008,0 0.9211,2.26906 0.35624,2.44192 -0.27013,0.0827 -3.86615,1.87403 -7.99115,3.9808 -21.95969,11.21554 -40.98324,23.93078 -59.82143,39.98432 -13.75134,11.71862 -28.79631,27.1682 -40.23623,41.31827 -4.38416,5.4228 -12.92129,16.73694 -13.23678,17.54255 -0.24255,0.61934 -0.74102,0.51669 -2.59841,-0.53509 z"
       style="fill:#173dde;fill-opacity:0.6;fill-rule:nonzero;stroke:#000000;stroke-width:1.34983134;stroke-linecap:round;stroke-linejoin:round;stroke-miterlimit:4;stroke-dasharray:none;stroke-opacity:1" />
    <path
       transform="scale(0.26458333)"
       id="path4854"
       d="m 439.3696,425.72443 c -0.004,-0.0865 -0.0512,-0.2272 -0.10394,-0.31254 l -0.0959,-0.15517 0.10394,-0.04 c 0.0572,-0.022 0.7669,-0.30543 1.57717,-0.62983 2.64607,-1.05938 7.12679,-2.78815 10.04464,-3.87547 0.91548,-0.34116 1.0754,-0.38871 1.09872,-0.32675 0.0167,0.0443 -7.3e-4,0.0836 -0.0446,0.10087 -1.75431,0.69162 -7.65063,3.20932 -10.83087,4.62473 -0.90848,0.40433 -1.67187,0.74333 -1.69643,0.75334 -0.0245,0.01 -0.0483,-0.0526 -0.0527,-0.13916 z"
       style="fill:#173dde;fill-opacity:0.6;fill-rule:nonzero;stroke:#000000;stroke-width:0.16872892;stroke-linecap:round;stroke-linejoin:round;stroke-miterlimit:4;stroke-dasharray:none;stroke-opacity:1" />
    <path
       transform="scale(0.26458333)"
       id="path4856"
       d="m 444.66783,421.76479 c 0,-0.15491 -0.0249,-0.22175 -0.11396,-0.30538 l -0.11396,-0.10706 0.28137,-0.0973 c 0.15475,-0.0535 1.00459,-0.35171 1.88851,-0.66266 0.88393,-0.31094 2.30946,-0.80623 3.16783,-1.10062 l 1.56069,-0.53528 0.23619,0.1195 c 0.25169,0.12735 0.28277,0.17043 0.15806,0.21906 -0.043,0.0168 -0.82143,0.30881 -1.72991,0.64902 -0.90848,0.34022 -2.44531,0.9232 -3.41518,1.29552 -0.96986,0.37233 -1.79855,0.68744 -1.84152,0.70024 -0.0662,0.0197 -0.0781,-0.007 -0.0781,-0.17503 z"
       style="fill:#173dde;fill-opacity:0.6;fill-rule:nonzero;stroke:#000000;stroke-width:0.16872892;stroke-linecap:round;stroke-linejoin:round;stroke-miterlimit:4;stroke-dasharray:none;stroke-opacity:1" />
    <path
       transform="scale(0.26458333)"
       id="path4858"
       d="m 478.11336,417.17327 -0.35771,-1.22625 5.01499,-1.79733 c 9.24716,-3.31411 18.70871,-6.31821 29.47928,-9.35986 3.69503,-1.04349 4.85771,-1.30395 5.69528,-1.27581 1.63083,0.0548 6.73329,0.84555 8.05472,1.2483 0.22356,0.0681 -0.41097,0.26788 -1.69643,0.534 -11.26942,2.33311 -24.31385,5.8314 -35.71428,9.57795 -2.42856,0.7981 -8.75889,2.99624 -9.83585,3.41539 -0.22325,0.0869 -0.35709,-0.1466 -0.64,-1.11639 z"
       style="fill:#173dde;fill-opacity:0.6;fill-rule:nonzero;stroke:#000000;stroke-width:0.67491567;stroke-linecap:round;stroke-linejoin:round;stroke-miterlimit:4;stroke-dasharray:none;stroke-opacity:1" />
    <path
       transform="scale(0.26458333)"
       id="path4860"
       d="m 476.94029,413.697 c -0.25407,-0.61384 -0.40888,-1.1673 -0.34402,-1.22991 0.1471,-0.14199 7.08729,-2.42299 12.08222,-3.971 4.66062,-1.4444 10.65555,-3.1843 15.43495,-4.47967 3.62225,-0.98175 3.66715,-0.98893 6.07143,-0.97126 3.74306,0.0275 3.75905,0.12914 0.17601,1.11881 -8.19423,2.26332 -20.36814,6.15552 -28.62246,9.15106 -2.27035,0.82392 -4.17477,1.49804 -4.23204,1.49804 -0.0573,0 -0.31201,-0.50223 -0.56609,-1.11607 z"
       style="fill:#173dde;fill-opacity:0.6;fill-rule:nonzero;stroke:#000000;stroke-width:0.67491567;stroke-linecap:round;stroke-linejoin:round;stroke-miterlimit:4;stroke-dasharray:none;stroke-opacity:1" />
    <path
       transform="scale(0.26458333)"
       id="path4862"
       d="m 495.65201,466.64307 c -0.53183,-1.11526 -0.52838,-1.12392 0.59582,-1.49572 0.62191,-0.20568 4.02642,-1.42199 7.56557,-2.7029 13.72761,-4.96842 27.87005,-8.58309 37.9868,-9.70906 l 2.27877,-0.25362 -0.25393,1.69328 c -0.36774,2.45229 -0.48716,2.63064 -1.92737,2.87866 -11.0317,1.89973 -28.97423,5.95574 -39.2028,8.862 l -6.50793,1.84911 z"
       style="fill:#173dde;fill-opacity:0.6;fill-rule:nonzero;stroke:#000000;stroke-width:1.34983134;stroke-linecap:round;stroke-linejoin:round;stroke-miterlimit:4;stroke-dasharray:none;stroke-opacity:1" />
    <path
       transform="scale(0.26458333)"
       id="path4864"
       d="m 458.01543,482.20387 c 1.31134,-0.74967 9.70089,-4.97542 9.87792,-4.97542 0.17353,0 0.57966,0.70874 0.46158,0.80551 -0.0267,0.0219 -1.61115,0.68313 -3.52097,1.46941 -1.90982,0.78629 -4.29115,1.78934 -5.29185,2.229 -1.91431,0.84105 -2.47718,1.01489 -1.52668,0.4715 z"
       style="fill:#173dde;fill-opacity:0.6;fill-rule:nonzero;stroke:#000000;stroke-width:0.47723743;stroke-linecap:round;stroke-linejoin:round;stroke-miterlimit:4;stroke-dasharray:none;stroke-opacity:1" />
    <path
       transform="scale(0.26458333)"
       id="path4866"
       d="m 420.58297,501.23757 c 0.22893,-0.20663 3.66888,-2.75739 6.18087,-4.58318 10.60453,-7.70769 20.30205,-13.9443 32.0297,-20.59875 4.02216,-2.28223 6.3999,-3.526 6.55615,-3.42943 0.13186,0.0815 1.08864,2.00945 1.38809,2.79706 0.10604,0.27891 -0.0294,0.36192 -3.07459,1.88406 -10.40352,5.20027 -25.70098,13.68983 -39.13745,21.71993 -3.48764,2.08434 -4.32047,2.55122 -3.94277,2.21031 z"
       style="fill:#173dde;fill-opacity:0.6;fill-rule:nonzero;stroke:#000000;stroke-width:0.47723743;stroke-linecap:round;stroke-linejoin:round;stroke-miterlimit:4;stroke-dasharray:none;stroke-opacity:1" />
    <path
       transform="scale(0.26458333)"
       id="path4868"
       d="m 493.95357,463.17886 c -0.097,-0.22452 -0.46195,-1.04306 -0.81096,-1.81898 l -0.63455,-1.41075 0.71546,-0.34016 c 2.75146,-1.30813 13.01364,-4.91014 19.54586,-6.86057 11.37369,-3.39603 23.70002,-5.97164 31.84914,-6.65495 0.9969,-0.0836 1.05185,-0.0752 0.98504,0.14998 -0.0389,0.13117 -0.22209,1.04872 -0.40706,2.03899 -0.29969,1.60446 -0.3657,1.80624 -0.60623,1.85337 -0.14846,0.0291 -1.43476,0.175 -2.85844,0.32425 -12.44651,1.30483 -29.98706,6.11163 -46.93974,12.86334 l -0.66211,0.2637 z"
       style="fill:#173dde;fill-opacity:0.6;fill-rule:nonzero;stroke:#000000;stroke-width:0.47723743;stroke-linecap:round;stroke-linejoin:round;stroke-miterlimit:4;stroke-dasharray:none;stroke-opacity:1" />
    <path
       transform="scale(0.26458333)"
       id="path4870"
       d="m 490.87708,455.94044 c -0.31336,-0.8379 -0.52609,-1.55889 -0.47274,-1.60221 0.22045,-0.179 11.98688,-4.23254 15.37556,-5.29688 13.02444,-4.09082 28.91714,-7.6619 38.72487,-8.70147 l 1.98058,-0.20993 -0.16468,1.4065 c -0.25994,2.22017 -0.30239,2.29039 -1.38498,2.29039 -1.39202,0 -7.89562,0.8956 -12.00794,1.65359 -10.94333,2.0171 -23.36549,5.549 -36.01594,10.24013 -2.58567,0.95883 -4.87307,1.74333 -5.08311,1.74333 -0.23566,0 -0.60004,-0.58333 -0.95162,-1.52345 z"
       style="fill:#173dde;fill-opacity:0.6;fill-rule:nonzero;stroke:#000000;stroke-width:0.95447487;stroke-linecap:round;stroke-linejoin:round;stroke-miterlimit:4;stroke-dasharray:none;stroke-opacity:1" />
    <path
       transform="scale(0.26458333)"
       id="path4872"
       d="m 394.11601,518.8938 c 0.77698,-1.08477 11.65747,-11.72702 15.44686,-15.10863 12.77946,-11.40426 25.40529,-20.72118 39.99291,-29.5118 4.57998,-2.75992 13.11062,-7.45179 13.3169,-7.3243 0.19691,0.12169 1.55289,3.42787 1.43911,3.50887 -0.0409,0.0291 -1.72222,0.94404 -3.73621,2.03312 -17.91828,9.68946 -38.42871,23.87619 -57.00223,39.42748 -3.60801,3.02093 -9.53857,7.66974 -9.78441,7.66974 -0.0937,0 0.0535,-0.31252 0.32707,-0.69448 z"
       style="fill:#173dde;fill-opacity:0.6;fill-rule:nonzero;stroke:#000000;stroke-width:0.95447487;stroke-linecap:round;stroke-linejoin:round;stroke-miterlimit:4;stroke-dasharray:none;stroke-opacity:1" />
    <path
       transform="scale(0.26458333)"
       id="path4874"
       d="m 496.3308,466.39285 c -0.0876,-0.22822 -0.12815,-0.43624 -0.0902,-0.46226 0.18611,-0.12746 12.85636,-4.55674 14.89867,-5.20829 7.60266,-2.42546 14.56118,-4.30111 20.52575,-5.53267 4.15349,-0.85761 9.68843,-1.75947 10.82411,-1.76367 0.69677,-0.003 0.71659,0.0312 0.55475,0.94434 -0.0923,0.52086 -0.22044,1.12756 -0.28473,1.34822 -0.0893,0.30665 -1.55911,0.68161 -6.23686,1.59113 -11.57373,2.25034 -24.46802,5.25791 -34.73024,8.10077 -2.77437,0.76856 -5.1023,1.39739 -5.17318,1.39739 -0.0709,0 -0.20054,-0.18673 -0.28811,-0.41496 z"
       style="fill:#173dde;fill-opacity:0.6;fill-rule:nonzero;stroke:#000000;stroke-width:0.95447487;stroke-linecap:round;stroke-linejoin:round;stroke-miterlimit:4;stroke-dasharray:none;stroke-opacity:1" />
    <path
       transform="scale(0.26458333)"
       id="path4876"
       d="m 493.65807,461.80956 c -0.34724,-0.77269 -0.66577,-1.48799 -0.70784,-1.58955 -0.17484,-0.42203 13.19118,-5.19781 20.78462,-7.4265 10.19835,-2.99324 21.75306,-5.42738 30.02501,-6.32514 l 1.4882,-0.16152 -0.16909,0.84343 c -0.093,0.46389 -0.23465,1.2523 -0.31477,1.75203 l -0.14569,0.9086 -3.57254,0.43606 c -12.73709,1.55467 -30.18046,6.33291 -45.49386,12.46208 l -1.26269,0.50539 z"
       style="fill:#173dde;fill-opacity:0.6;fill-rule:nonzero;stroke:#000000;stroke-width:0.95447487;stroke-linecap:round;stroke-linejoin:round;stroke-miterlimit:4;stroke-dasharray:none;stroke-opacity:1" />
    <path
       transform="scale(0.26458333)"
       id="path4878"
       d="m 489.23996,451.71865 c -0.0985,-0.24307 -0.452,-1.15604 -0.78567,-2.02883 l -0.60668,-1.58689 1.0956,-0.46963 c 2.07431,-0.88915 10.91089,-3.83847 15.574,-5.19801 11.05188,-3.2222 20.85318,-5.32517 31.06219,-6.66471 2.97277,-0.39006 10.9002,-1.28427 11.42017,-1.28819 0.0387,-2.9e-4 0.0327,0.72673 -0.0132,1.61559 l -0.0835,1.61612 -2.56812,0.30214 c -14.29368,1.68167 -33.76943,6.54892 -50.15777,12.5351 -2.42309,0.88509 -4.48491,1.60925 -4.5818,1.60925 -0.0969,0 -0.25672,-0.19887 -0.35517,-0.44194 z"
       style="fill:#173dde;fill-opacity:0.6;fill-rule:nonzero;stroke:#000000;stroke-width:0.95447487;stroke-linecap:round;stroke-linejoin:round;stroke-miterlimit:4;stroke-dasharray:none;stroke-opacity:1" />
    <path
       transform="scale(0.26458333)"
       id="path4880"
       d="m 486.98737,445.62334 c -0.15623,-0.26321 -1.41052,-4.334 -1.41052,-4.57782 0,-0.48909 14.33112,-4.92301 22.34963,-6.91477 12.87221,-3.1974 23.01972,-4.96943 37.81081,-6.60278 1.39099,-0.1536 1.40155,-0.13397 1.51565,2.81784 l 0.0695,1.79753 -3.283,0.30404 c -7.40701,0.68596 -16.24236,2.04076 -24.08886,3.69375 -8.87636,1.86995 -15.5869,3.76379 -26.61452,7.51112 -3.44117,1.16935 -6.29808,2.05634 -6.34868,1.97109 z"
       style="fill:#173dde;fill-opacity:0.6;fill-rule:nonzero;stroke:#000000;stroke-width:0.95447487;stroke-linecap:round;stroke-linejoin:round;stroke-miterlimit:4;stroke-dasharray:none;stroke-opacity:1" />
    <path
       transform="scale(0.26458333)"
       id="path4882"
       d="m 366.67997,542.12193 c -0.32052,-0.0532 -0.54781,-0.19332 -0.50508,-0.3114 0.12113,-0.33475 6.59581,-8.122 9.54562,-11.48074 7.37031,-8.39206 20.1548,-21.47538 28.00066,-28.65516 15.08193,-13.80154 30.93556,-25.69455 47.38423,-35.54651 7.15838,-4.28753 9.44234,-5.49834 9.59378,-5.08604 0.42946,1.16924 1.13909,3.348 1.13909,3.49733 0,0.0979 -2.01715,1.28991 -4.48256,2.64901 -27.80826,15.32986 -51.08207,34.04919 -71.75974,57.71698 -1.9956,2.28418 -4.67366,5.11901 -5.95123,6.29963 -5.22699,4.83029 -11.77406,10.72423 -12.06811,10.86419 -0.17264,0.0822 -0.57614,0.1059 -0.89666,0.0527 z"
       style="fill:#173dde;fill-opacity:0.6;fill-rule:nonzero;stroke:#000000;stroke-width:0.95447487;stroke-linecap:round;stroke-linejoin:round;stroke-miterlimit:4;stroke-dasharray:none;stroke-opacity:1" />
    <path
       transform="scale(0.26458333)"
       id="path4884"
       d="m 359.24465,540.98259 c -1.49313,-0.28323 -2.71479,-0.61635 -2.71479,-0.74028 0,-0.27717 2.01683,-3.02014 5.53075,-7.52205 25.98236,-33.28772 57.46809,-60.03941 91.63486,-77.85708 l 4.10531,-2.14088 0.91022,2.89007 c 0.50062,1.58953 0.86926,2.92486 0.81919,2.96739 -0.0501,0.0425 -1.79876,1.04437 -3.88598,2.22632 -31.4536,17.81149 -60.95574,43.13722 -88.11263,75.63912 -3.61304,4.32415 -4.37323,5.10914 -4.92253,5.08312 -0.35729,-0.0169 -1.87127,-0.26251 -3.3644,-0.54573 z"
       style="fill:#173dde;fill-opacity:0.6;fill-rule:nonzero;stroke:#000000;stroke-width:0.95447487;stroke-linecap:round;stroke-linejoin:round;stroke-miterlimit:4;stroke-dasharray:none;stroke-opacity:1" />
    <path
       transform="scale(0.26458333)"
       id="path4886"
       d="m 329.99617,583.11226 c 0,-0.64776 9.16459,-17.20528 10.29388,-18.59779 l 0.33515,-0.41326 2.58727,0.47489 c 1.423,0.26119 2.60838,0.49506 2.63419,0.51971 0.0258,0.0246 -1.02472,1.68441 -2.3345,3.68837 -2.37389,3.63205 -5.71315,8.94561 -7.35508,11.70365 l -0.86497,1.45295 -2.51404,0.64889 c -2.66233,0.68718 -2.7819,0.70964 -2.7819,0.52259 z"
       style="fill:#173dde;fill-opacity:0.6;fill-rule:nonzero;stroke:#000000;stroke-width:0.67491567;stroke-linecap:round;stroke-linejoin:round;stroke-miterlimit:4;stroke-dasharray:none;stroke-opacity:1" />
    <path
       transform="scale(0.26458333)"
       id="path4894"
       d="m 307.07578,585.96002 c -0.19643,-0.0673 -1.11559,-0.22439 -2.04259,-0.34919 l -1.68544,-0.22689 0.57265,-1.49763 c 1.46884,-3.84139 12.6541,-26.07494 13.63935,-27.11168 0.1935,-0.20362 3.79435,1.20191 4.25221,1.65977 0.0612,0.0612 -1.43241,3.46326 -3.31917,7.5601 -1.88676,4.09683 -4.5699,10.30526 -5.96254,13.79649 l -2.53206,6.3477 -1.28264,-0.0282 c -0.70544,-0.0155 -1.44334,-0.0832 -1.63977,-0.15048 z"
       style="fill:#173dde;fill-opacity:0.6;fill-rule:nonzero;stroke:#000000;stroke-width:1.34983134;stroke-linecap:round;stroke-linejoin:round;stroke-miterlimit:4;stroke-dasharray:none;stroke-opacity:1" />
    <path
       transform="scale(0.26458333)"
       id="path4896"
       d="m 334.29081,533.72758 c -0.95983,-0.39343 -1.29526,-0.71532 -1.14727,-1.10098 0.3652,-0.9517 6.25475,-8.84142 11.46969,-15.36496 28.29372,-35.39354 63.18324,-63.69311 103.2595,-83.75577 l 4.72553,-2.36566 0.22006,0.87677 c 0.12103,0.48223 0.16419,1.03423 0.0959,1.22667 -0.0683,0.19244 -4.46344,2.52047 -9.76701,5.1734 -13.43385,6.71981 -25.43657,13.98362 -37.897,22.93453 -24.87536,17.86915 -47.38707,41.15874 -65.81888,68.09326 -1.84731,2.69947 -3.45445,4.89252 -3.57143,4.87343 -0.11698,-0.0191 -0.82307,-0.2849 -1.56909,-0.59069 z"
       style="fill:#173dde;fill-opacity:0.6;fill-rule:nonzero;stroke:#000000;stroke-width:1.34983134;stroke-linecap:round;stroke-linejoin:round;stroke-miterlimit:4;stroke-dasharray:none;stroke-opacity:1" />
    <path
       transform="scale(0.26458333)"
       id="path4898"
       d="m 480.11177,422.03228 c -0.33156,-0.87208 -0.49054,-2.32216 -0.25459,-2.32216 0.0566,0 2.18603,-0.73696 4.73215,-1.63768 10.12238,-3.58094 25.75702,-7.93164 38.3793,-10.67992 l 5.89286,-1.28307 2.14286,0.76889 c 2.62388,0.94148 6.25,2.8205 6.25,3.23868 0,0.16906 -0.43083,0.30739 -0.9574,0.30739 -1.6515,0 -12.4897,1.77743 -19.93546,3.26935 -10.69709,2.1434 -25.97837,6.07105 -35.08901,9.01871 -0.65588,0.2122 -0.86888,0.0874 -1.16071,-0.68019 z"
       style="fill:#173dde;fill-opacity:0.6;fill-rule:nonzero;stroke:#000000;stroke-width:1.34983134;stroke-linecap:round;stroke-linejoin:round;stroke-miterlimit:4;stroke-dasharray:none;stroke-opacity:1" />
  </g>
</svg>
