<?xml version="1.0" encoding="UTF-8" standalone="no"?>
<!-- Created with Inkscape (http://www.inkscape.org/) -->

<svg
   xmlns:dc="http://purl.org/dc/elements/1.1/"
   xmlns:cc="http://creativecommons.org/ns#"
   xmlns:rdf="http://www.w3.org/1999/02/22-rdf-syntax-ns#"
   xmlns:svg="http://www.w3.org/2000/svg"
   xmlns="http://www.w3.org/2000/svg"
   xmlns:sodipodi="http://sodipodi.sourceforge.net/DTD/sodipodi-0.dtd"
   xmlns:inkscape="http://www.inkscape.org/namespaces/inkscape"
   width="210mm"
   height="297mm"
   viewBox="0 0 210 297"
   version="1.1"
   id="svg4906"
   inkscape:version="0.92.3 (2405546, 2018-03-11)"
   sodipodi:docname="server.svg"
   inkscape:export-filename="C:\Users\austi\Documents\Code\_____Projects\2020-5-7 Dad's Website\images\server.png"
   inkscape:export-xdpi="300"
   inkscape:export-ydpi="300">
  <defs
     id="defs4900" />
  <sodipodi:namedview
     id="base"
     pagecolor="#ffffff"
     bordercolor="#666666"
     borderopacity="1.0"
     inkscape:pageopacity="0.0"
     inkscape:pageshadow="2"
     inkscape:zoom="0.98994949"
     inkscape:cx="343.2349"
     inkscape:cy="621.44728"
     inkscape:document-units="mm"
     inkscape:current-layer="layer1"
     showgrid="false"
     inkscape:window-width="1920"
     inkscape:window-height="1001"
     inkscape:window-x="-9"
     inkscape:window-y="-9"
     inkscape:window-maximized="1" />
  <metadata
     id="metadata4903">
    <rdf:RDF>
      <cc:Work
         rdf:about="">
        <dc:format>image/svg+xml</dc:format>
        <dc:type
           rdf:resource="http://purl.org/dc/dcmitype/StillImage" />
        <dc:title></dc:title>
      </cc:Work>
    </rdf:RDF>
  </metadata>
  <g
     inkscape:label="Layer 1"
     inkscape:groupmode="layer"
     id="layer1">
    <path
       style="fill:none;stroke:#000000;stroke-width:0.26458332px;stroke-linecap:butt;stroke-linejoin:miter;stroke-opacity:1"
       d="M 63.342876,191.96307 V 40.421253 c 31.461318,-3.192338 50.865654,-1.695852 69.757344,0 V 191.96307 c -23.16336,2.08113 -46.593987,2.19457 -69.757344,0"
       id="path5461"
       inkscape:connector-curvature="0"
       sodipodi:nodetypes="ccccc" />
    <path
       style="fill:#000000;fill-opacity:1;fill-rule:nonzero;stroke:#000000;stroke-width:3;stroke-linecap:round;stroke-linejoin:round;stroke-miterlimit:4;stroke-dasharray:none;stroke-opacity:1"
       d="m 91.785581,193.13439 c -8.465039,-0.13063 -23.433978,-0.94112 -27.639507,-1.49652 l -0.803198,-0.10608 V 115.97652 40.421253 l 2.504091,-0.22883 c 12.859864,-1.175171 20.232364,-1.526109 32.080724,-1.527083 10.937479,-7.93e-4 17.975379,0.312809 29.752929,1.326211 2.38371,0.205108 4.48857,0.372922 4.67745,0.372922 0.33135,0 0.34344,2.660333 0.34344,75.586677 v 75.58667 l -0.61422,0.0991 c -0.72907,0.11765 -7.05354,0.58492 -11.57552,0.85524 -7.77566,0.46482 -21.025869,0.76105 -28.726189,0.64222 z"
       id="path5467"
       inkscape:connector-curvature="0" />
    <path
       style="fill:#ffffff;fill-opacity:1;fill-rule:nonzero;stroke:#000000;stroke-width:0.89334416;stroke-linecap:round;stroke-linejoin:round;stroke-miterlimit:4;stroke-dasharray:none;stroke-opacity:1"
       d="m 69.178407,187.46241 -0.698116,-0.0417 v -29.72142 -29.72146 c 24.042755,-0.0913 48.966359,0.42242 59.985829,-0.0228 0.28799,0 0.2985,1.0465 0.2985,29.7338 v 29.7337 l -0.53385,0.039 c -18.22239,1.70791 -36.586155,2.37338 -59.052363,4.2e-4 z"
       id="path5467-9-9-9-8"
       inkscape:connector-curvature="0"
       sodipodi:nodetypes="cccccscccc" />
    <circle
       style="fill:#173dde;fill-opacity:1;fill-rule:nonzero;stroke:#000000;stroke-width:0.35794622;stroke-linecap:round;stroke-linejoin:round;stroke-miterlimit:4;stroke-dasharray:none;stroke-opacity:1"
       id="path5609-3-1-2"
       cx="72.56366"
       cy="112.71767"
       r="1.6741918" />
    <circle
       style="fill:#173dde;fill-opacity:1;fill-rule:nonzero;stroke:#000000;stroke-width:0.35794622;stroke-linecap:round;stroke-linejoin:round;stroke-miterlimit:4;stroke-dasharray:none;stroke-opacity:1"
       id="path5609-3-1-2-7"
       cx="77.107262"
       cy="112.58403"
       r="1.6741918" />
    <circle
       style="fill:#173dde;fill-opacity:1;fill-rule:nonzero;stroke:#000000;stroke-width:0.35794622;stroke-linecap:round;stroke-linejoin:round;stroke-miterlimit:4;stroke-dasharray:none;stroke-opacity:1"
       id="path5609-3-1-2-7-8"
       cx="81.784477"
       cy="112.45039"
       r="1.6741918" />
    <circle
       style="fill:#173dde;fill-opacity:1;fill-rule:nonzero;stroke:#000000;stroke-width:0.35794622;stroke-linecap:round;stroke-linejoin:round;stroke-miterlimit:4;stroke-dasharray:none;stroke-opacity:1"
       id="path5609-3-1-2-7-8-3"
       cx="86.595329"
       cy="112.31676"
       r="1.6741918" />
    <circle
       style="fill:#173dde;fill-opacity:1;fill-rule:nonzero;stroke:#000000;stroke-width:0.35794622;stroke-linecap:round;stroke-linejoin:round;stroke-miterlimit:4;stroke-dasharray:none;stroke-opacity:1"
       id="path5609-3-1-2-2"
       cx="91.205719"
       cy="112.24994"
       r="1.6741918" />
    <circle
       style="fill:#173dde;fill-opacity:1;fill-rule:nonzero;stroke:#000000;stroke-width:0.35794622;stroke-linecap:round;stroke-linejoin:round;stroke-miterlimit:4;stroke-dasharray:none;stroke-opacity:1"
       id="path5609-3-1-2-7-9"
       cx="95.749321"
       cy="112.11631"
       r="1.6741918" />
    <circle
       style="fill:#173dde;fill-opacity:1;fill-rule:nonzero;stroke:#000000;stroke-width:0.35794622;stroke-linecap:round;stroke-linejoin:round;stroke-miterlimit:4;stroke-dasharray:none;stroke-opacity:1"
       id="path5609-3-1-2-7-8-0"
       cx="100.42654"
       cy="111.98267"
       r="1.6741918" />
    <circle
       style="fill:#173dde;fill-opacity:1;fill-rule:nonzero;stroke:#000000;stroke-width:0.35794622;stroke-linecap:round;stroke-linejoin:round;stroke-miterlimit:4;stroke-dasharray:none;stroke-opacity:1"
       id="path5609-3-1-2-7-8-3-7"
       cx="105.23739"
       cy="111.84903"
       r="1.6741918" />
    <circle
       style="fill:#173dde;fill-opacity:1;fill-rule:nonzero;stroke:#000000;stroke-width:0.35794622;stroke-linecap:round;stroke-linejoin:round;stroke-miterlimit:4;stroke-dasharray:none;stroke-opacity:1"
       id="path5609-3-1-2-98"
       cx="72.663887"
       cy="117.16103"
       r="1.6741918" />
    <circle
       style="fill:#173dde;fill-opacity:1;fill-rule:nonzero;stroke:#000000;stroke-width:0.35794622;stroke-linecap:round;stroke-linejoin:round;stroke-miterlimit:4;stroke-dasharray:none;stroke-opacity:1"
       id="path5609-3-1-2-7-6"
       cx="77.207489"
       cy="117.0274"
       r="1.6741918" />
    <circle
       style="fill:#173dde;fill-opacity:1;fill-rule:nonzero;stroke:#000000;stroke-width:0.35794622;stroke-linecap:round;stroke-linejoin:round;stroke-miterlimit:4;stroke-dasharray:none;stroke-opacity:1"
       id="path5609-3-1-2-7-8-9"
       cx="81.884705"
       cy="116.89375"
       r="1.6741918" />
    <circle
       style="fill:#173dde;fill-opacity:1;fill-rule:nonzero;stroke:#000000;stroke-width:0.35794622;stroke-linecap:round;stroke-linejoin:round;stroke-miterlimit:4;stroke-dasharray:none;stroke-opacity:1"
       id="path5609-3-1-2-7-8-3-56"
       cx="86.695557"
       cy="116.76012"
       r="1.6741918" />
    <circle
       style="fill:#173dde;fill-opacity:1;fill-rule:nonzero;stroke:#000000;stroke-width:0.35794622;stroke-linecap:round;stroke-linejoin:round;stroke-miterlimit:4;stroke-dasharray:none;stroke-opacity:1"
       id="path5609-3-1-2-2-9"
       cx="91.305946"
       cy="116.69329"
       r="1.6741918" />
    <circle
       style="fill:#173dde;fill-opacity:1;fill-rule:nonzero;stroke:#000000;stroke-width:0.35794622;stroke-linecap:round;stroke-linejoin:round;stroke-miterlimit:4;stroke-dasharray:none;stroke-opacity:1"
       id="path5609-3-1-2-7-9-4"
       cx="95.849548"
       cy="116.55968"
       r="1.6741918" />
    <circle
       style="fill:#173dde;fill-opacity:1;fill-rule:nonzero;stroke:#000000;stroke-width:0.35794622;stroke-linecap:round;stroke-linejoin:round;stroke-miterlimit:4;stroke-dasharray:none;stroke-opacity:1"
       id="path5609-3-1-2-7-8-0-0"
       cx="100.52676"
       cy="116.42603"
       r="1.6741918" />
    <circle
       style="fill:#173dde;fill-opacity:1;fill-rule:nonzero;stroke:#000000;stroke-width:0.35794622;stroke-linecap:round;stroke-linejoin:round;stroke-miterlimit:4;stroke-dasharray:none;stroke-opacity:1"
       id="path5609-3-1-2-7-8-3-7-4"
       cx="105.33762"
       cy="116.29238"
       r="1.6741918" />
    <rect
       style="fill:#ffffff;fill-opacity:1;fill-rule:nonzero;stroke:none;stroke-width:0.89999998;stroke-linecap:round;stroke-linejoin:round;stroke-miterlimit:4;stroke-dasharray:none;stroke-opacity:1"
       id="rect5833"
       width="59.397282"
       height="26.601431"
       x="68.908295"
       y="169.73247" />
    <path
       style="fill:#888888;fill-opacity:1;fill-rule:nonzero;stroke:none;stroke-width:0.64285713;stroke-linecap:round;stroke-linejoin:round;stroke-miterlimit:4;stroke-dasharray:none;stroke-opacity:1"
       d="m 72.087138,123.07575 -3.165551,-0.0567 v -7.25283 -7.25282 l 2.22061,-0.15372 c 2.801972,-0.19396 47.738753,-0.18349 53.011173,0.0123 l 3.9215,0.14567 v 7.22407 7.22408 l -18.2846,0.12556 c -17.242845,0.11841 -30.527666,0.1129 -37.703132,-0.0156 z m 1.56962,-4.21091 c 0.464481,-0.24858 0.934471,-1.15353 0.934471,-1.7993 0,-0.67294 -1.112925,-1.78587 -1.785874,-1.78587 -0.645761,0 -1.550715,0.46999 -1.799296,0.93447 -0.883378,1.65061 1.000093,3.53408 2.650699,2.6507 z m 4.950468,-0.56387 c 0.951931,-1.04479 0.514074,-2.55537 -0.873427,-3.01329 -1.189503,-0.39257 -2.392156,0.54713 -2.380607,1.86011 0.007,0.79158 0.282453,1.21891 1.051319,1.63074 0.743598,0.3983 1.567437,0.21969 2.202715,-0.47756 z m 4.460073,0.0919 c 0.956283,-0.80466 0.958093,-2.01749 0.0043,-2.90606 -1.033005,-0.96239 -3.013493,-0.0972 -3.054067,1.3342 -0.04847,1.70993 1.771108,2.64775 3.04973,1.57186 z m 4.956622,-0.26383 c 0.917197,-0.9172 0.725818,-2.36554 -0.388729,-2.9419 -1.408647,-0.72844 -2.838606,0.17761 -2.838606,1.79858 0,0.90156 0.885108,1.69575 1.889882,1.69575 0.615678,0 0.9042,-0.11918 1.337453,-0.55243 z m 4.537501,0.0652 c 1.278713,-1.15722 0.505314,-3.29252 -1.192535,-3.29252 -0.937671,0 -1.58545,0.43411 -1.851727,1.24094 -0.319891,0.96928 0.120867,1.96983 1.043562,2.36897 0.525259,0.22721 1.584629,0.0592 2.0007,-0.31739 z m 4.559361,-0.24937 c 0.507198,-0.45318 0.612899,-0.68466 0.612899,-1.34225 0,-0.6576 -0.105701,-0.88908 -0.612899,-1.34226 -0.426535,-0.38111 -0.812213,-0.54762 -1.268394,-0.54762 -0.456182,0 -0.841857,0.16651 -1.268392,0.54762 -0.507201,0.45318 -0.612899,0.68466 -0.612899,1.34226 0,0.65759 0.105698,0.88907 0.612899,1.34225 0.827934,0.73976 1.708851,0.73976 2.536786,0 z m 4.731987,-0.17482 c 0.39476,-0.36626 0.51972,-0.65845 0.51972,-1.21522 0,-0.9402 -0.24648,-1.38641 -0.9735,-1.76237 -1.28378,-0.66386 -2.711779,0.23717 -2.711779,1.71105 0,0.95258 0.433837,1.53992 1.307547,1.77021 0.771132,0.20325 1.230202,0.0788 1.858012,-0.50367 z m 4.8149,-0.085 c 0.6241,-0.62409 0.73008,-1.59443 0.25677,-2.35078 -0.97748,-1.56202 -3.41802,-0.89896 -3.41802,0.92862 0,0.92006 0.23783,1.38269 0.90244,1.75541 0.67691,0.37963 1.69634,0.22923 2.25881,-0.33325 z m -33.206588,-3.2577 c 0.686531,-0.35502 0.94116,-0.81524 0.94116,-1.70105 0,-1.34452 -1.619718,-2.25459 -2.845292,-1.59868 -0.977828,0.52331 -1.157348,2.19988 -0.317365,2.96392 0.744276,0.67699 1.376823,0.77261 2.221497,0.33581 z m 4.924447,-0.45598 c 1.178184,-1.17818 0.386214,-3.22733 -1.24732,-3.22733 -0.874004,0 -1.980015,1.00242 -1.980015,1.79457 0,1.71714 2.038133,2.62196 3.227335,1.43276 z m 4.724701,-0.18899 c 0.888151,-0.88815 0.688494,-2.27522 -0.421912,-2.93115 -1.807832,-1.06792 -3.739264,1.44488 -2.252996,2.93115 0.777912,0.77792 1.896996,0.77792 2.674908,0 z m 4.338376,0.26575 c 1.766985,-0.91375 1.152212,-3.53088 -0.829416,-3.53088 -0.898708,0 -1.430748,0.3364 -1.753418,1.10865 -0.371803,0.88986 -0.06454,1.84604 0.753497,2.34485 0.718568,0.43816 1.100431,0.45431 1.829337,0.0774 z m 5.11103,-0.45474 c 0.798819,-0.79882 0.76641,-1.72823 -0.09013,-2.58477 -1.244719,-1.24472 -3.122721,-0.46001 -3.133,1.3091 -0.0096,1.65952 2.03145,2.46736 3.223133,1.27567 z m 4.568423,-0.20603 c 0.705704,-0.77455 0.701124,-1.67838 -0.01254,-2.47713 -0.443267,-0.4961 -0.670282,-0.59571 -1.357606,-0.59571 -0.687324,0 -0.914339,0.0996 -1.357606,0.59571 -0.654889,0.73295 -0.704022,1.64336 -0.128196,2.3754 0.802709,1.02048 1.980642,1.06244 2.855966,0.10173 z m 4.467551,0.0856 c 1.39304,-1.17217 0.64036,-3.28115 -1.17479,-3.2917 -1.012348,-0.006 -1.828102,0.81033 -1.828102,1.82909 0,1.69141 1.729732,2.5339 3.002892,1.46261 z m 4.94915,-0.25755 c 0.9172,-0.9172 0.72582,-2.36554 -0.38872,-2.9419 -0.87995,-0.45503 -1.48176,-0.35717 -2.19605,0.35712 -0.71343,0.71344 -0.81215,1.31612 -0.35908,2.19226 0.36371,0.70335 0.76995,0.93206 1.66818,0.9392 0.55198,0.004 0.85406,-0.12507 1.27567,-0.54668 z"
       id="path5852"
       inkscape:connector-curvature="0" />
    <path
       style="fill:#f0f0f0;fill-opacity:0;fill-rule:nonzero;stroke:none;stroke-width:2.42969632;stroke-linecap:round;stroke-linejoin:round;stroke-miterlimit:4;stroke-dasharray:none;stroke-opacity:1"
       d="m 259.54955,200.04098 c 0,-21.70312 0.19921,-28.00732 0.89286,-28.25457 0.49107,-0.17504 6.67857,-0.96642 13.75,-1.7586 57.2919,-6.41823 130.03146,-6.41074 191.78571,0.0198 7.66071,0.79771 14.65179,1.63183 15.53571,1.8536 l 1.60715,0.40321 v 27.79332 27.79332 l -1.60715,-0.36108 c -1.76884,-0.3974 -28.20616,-2.78515 -43.39285,-3.91913 -34.38377,-2.56739 -98.86535,-2.79388 -130,-0.45661 -17.29246,1.29813 -43.63073,3.79209 -46.60715,4.41321 l -1.96428,0.4099 z m 15.61069,-12.48076 c 4.226,-2.18535 4.81122,-7.27452 1.24645,-10.83929 -3.56477,-3.56476 -8.65394,-2.97954 -10.83928,1.24645 -3.35287,6.48373 3.1091,12.9457 9.59283,9.59284 z m 18.72997,-3.21291 c 2.73667,-2.73667 2.82598,-6.21105 0.2387,-9.28586 -1.54369,-1.83457 -2.36319,-2.19766 -4.96017,-2.19766 -4.62487,0 -7.11919,2.37748 -7.11919,6.78572 0,2.77171 0.33998,3.63041 2.00412,5.06184 2.94102,2.52977 7.09652,2.37597 9.83654,-0.36404 z m 16.3915,-0.23352 c 4.15349,-2.81419 4.55441,-7.58581 0.92036,-10.95374 -6.08571,-5.64004 -15.25394,2.78976 -10.1253,9.30978 2.74901,3.49479 5.69638,4.02118 9.20494,1.64396 z m 20.27577,-2.73337 c 2.51836,-2.99291 2.46768,-6.37334 -0.13932,-9.29107 -3.4274,-3.83593 -9.54983,-2.70524 -11.55424,2.13382 -1.94033,4.68437 1.38529,9.35491 6.66109,9.35491 2.67772,0 3.47694,-0.34902 5.03247,-2.19766 z"
       id="path5873"
       inkscape:connector-curvature="0"
       transform="scale(0.26458333)" />
    <rect
       style="fill:#888888;fill-opacity:1;fill-rule:nonzero;stroke:none;stroke-width:0.89999998;stroke-linecap:round;stroke-linejoin:round;stroke-miterlimit:4;stroke-dasharray:none;stroke-opacity:1"
       id="rect5906"
       width="60.284328"
       height="59.444698"
       x="68.480293"
       y="127.97783" />
    <rect
       style="fill:#777777;fill-opacity:1;fill-rule:nonzero;stroke:none;stroke-width:0.89999998;stroke-linecap:round;stroke-linejoin:round;stroke-miterlimit:4;stroke-dasharray:none;stroke-opacity:1"
       id="rect5935"
       width="60.34362"
       height="33.678997"
       x="68.480293"
       y="127.97783" />
    <rect
       style="fill:#777777;fill-opacity:1;fill-rule:nonzero;stroke:none;stroke-width:0.24354964;stroke-linecap:round;stroke-linejoin:round;stroke-miterlimit:4;stroke-dasharray:none;stroke-opacity:1"
       id="rect5935-6"
       width="55.429932"
       height="2.6849496"
       x="70.376778"
       y="118.99511" />
    <circle
       style="fill:#173dde;fill-opacity:1;fill-rule:nonzero;stroke:#000000;stroke-width:0.35794622;stroke-linecap:round;stroke-linejoin:round;stroke-miterlimit:4;stroke-dasharray:none;stroke-opacity:1"
       id="path5609-3-1-2-6"
       cx="72.316917"
       cy="92.184593"
       r="1.6741918" />
    <circle
       style="fill:#173dde;fill-opacity:1;fill-rule:nonzero;stroke:#000000;stroke-width:0.35794622;stroke-linecap:round;stroke-linejoin:round;stroke-miterlimit:4;stroke-dasharray:none;stroke-opacity:1"
       id="path5609-3-1-2-7-62"
       cx="76.860519"
       cy="92.050957"
       r="1.6741918" />
    <circle
       style="fill:#173dde;fill-opacity:1;fill-rule:nonzero;stroke:#000000;stroke-width:0.35794622;stroke-linecap:round;stroke-linejoin:round;stroke-miterlimit:4;stroke-dasharray:none;stroke-opacity:1"
       id="path5609-3-1-2-7-8-5"
       cx="81.537735"
       cy="91.917313"
       r="1.6741918" />
    <circle
       style="fill:#173dde;fill-opacity:1;fill-rule:nonzero;stroke:#000000;stroke-width:0.35794622;stroke-linecap:round;stroke-linejoin:round;stroke-miterlimit:4;stroke-dasharray:none;stroke-opacity:1"
       id="path5609-3-1-2-7-8-3-79"
       cx="86.348587"
       cy="91.783684"
       r="1.6741918" />
    <circle
       style="fill:#173dde;fill-opacity:1;fill-rule:nonzero;stroke:#000000;stroke-width:0.35794622;stroke-linecap:round;stroke-linejoin:round;stroke-miterlimit:4;stroke-dasharray:none;stroke-opacity:1"
       id="path5609-3-1-2-2-3"
       cx="90.958977"
       cy="91.716866"
       r="1.6741918" />
    <circle
       style="fill:#173dde;fill-opacity:1;fill-rule:nonzero;stroke:#000000;stroke-width:0.35794622;stroke-linecap:round;stroke-linejoin:round;stroke-miterlimit:4;stroke-dasharray:none;stroke-opacity:1"
       id="path5609-3-1-2-7-9-9"
       cx="95.502579"
       cy="91.583237"
       r="1.6741918" />
    <circle
       style="fill:#173dde;fill-opacity:1;fill-rule:nonzero;stroke:#000000;stroke-width:0.35794622;stroke-linecap:round;stroke-linejoin:round;stroke-miterlimit:4;stroke-dasharray:none;stroke-opacity:1"
       id="path5609-3-1-2-7-8-0-8"
       cx="100.17979"
       cy="91.449593"
       r="1.6741918" />
    <circle
       style="fill:#173dde;fill-opacity:1;fill-rule:nonzero;stroke:#000000;stroke-width:0.35794622;stroke-linecap:round;stroke-linejoin:round;stroke-miterlimit:4;stroke-dasharray:none;stroke-opacity:1"
       id="path5609-3-1-2-7-8-3-7-6"
       cx="104.99064"
       cy="91.315956"
       r="1.6741918" />
    <circle
       style="fill:#173dde;fill-opacity:1;fill-rule:nonzero;stroke:#000000;stroke-width:0.35794622;stroke-linecap:round;stroke-linejoin:round;stroke-miterlimit:4;stroke-dasharray:none;stroke-opacity:1"
       id="path5609-3-1-2-98-6"
       cx="72.417145"
       cy="96.627953"
       r="1.6741918" />
    <circle
       style="fill:#173dde;fill-opacity:1;fill-rule:nonzero;stroke:#000000;stroke-width:0.35794622;stroke-linecap:round;stroke-linejoin:round;stroke-miterlimit:4;stroke-dasharray:none;stroke-opacity:1"
       id="path5609-3-1-2-7-6-7"
       cx="76.960747"
       cy="96.494324"
       r="1.6741918" />
    <circle
       style="fill:#173dde;fill-opacity:1;fill-rule:nonzero;stroke:#000000;stroke-width:0.35794622;stroke-linecap:round;stroke-linejoin:round;stroke-miterlimit:4;stroke-dasharray:none;stroke-opacity:1"
       id="path5609-3-1-2-7-8-9-3"
       cx="81.637962"
       cy="96.360672"
       r="1.6741918" />
    <circle
       style="fill:#173dde;fill-opacity:1;fill-rule:nonzero;stroke:#000000;stroke-width:0.35794622;stroke-linecap:round;stroke-linejoin:round;stroke-miterlimit:4;stroke-dasharray:none;stroke-opacity:1"
       id="path5609-3-1-2-7-8-3-56-3"
       cx="86.448814"
       cy="96.227043"
       r="1.6741918" />
    <circle
       style="fill:#173dde;fill-opacity:1;fill-rule:nonzero;stroke:#000000;stroke-width:0.35794622;stroke-linecap:round;stroke-linejoin:round;stroke-miterlimit:4;stroke-dasharray:none;stroke-opacity:1"
       id="path5609-3-1-2-2-9-7"
       cx="91.059204"
       cy="96.160217"
       r="1.6741918" />
    <circle
       style="fill:#173dde;fill-opacity:1;fill-rule:nonzero;stroke:#000000;stroke-width:0.35794622;stroke-linecap:round;stroke-linejoin:round;stroke-miterlimit:4;stroke-dasharray:none;stroke-opacity:1"
       id="path5609-3-1-2-7-9-4-9"
       cx="95.602806"
       cy="96.026604"
       r="1.6741918" />
    <circle
       style="fill:#173dde;fill-opacity:1;fill-rule:nonzero;stroke:#000000;stroke-width:0.35794622;stroke-linecap:round;stroke-linejoin:round;stroke-miterlimit:4;stroke-dasharray:none;stroke-opacity:1"
       id="path5609-3-1-2-7-8-0-0-7"
       cx="100.28001"
       cy="95.892952"
       r="1.6741918" />
    <circle
       style="fill:#173dde;fill-opacity:1;fill-rule:nonzero;stroke:#000000;stroke-width:0.35794622;stroke-linecap:round;stroke-linejoin:round;stroke-miterlimit:4;stroke-dasharray:none;stroke-opacity:1"
       id="path5609-3-1-2-7-8-3-7-4-3"
       cx="105.09089"
       cy="95.759308"
       r="1.6741918" />
    <path
       style="fill:#888888;fill-opacity:1;fill-rule:nonzero;stroke:none;stroke-width:0.64285713;stroke-linecap:round;stroke-linejoin:round;stroke-miterlimit:4;stroke-dasharray:none;stroke-opacity:1"
       d="m 71.84011,102.48531 -3.165551,-0.0567 v -7.252821 -7.25283 l 2.22061,-0.15372 c 2.801972,-0.19395 47.738741,-0.18349 53.011161,0.0124 l 3.9215,0.14566 v 7.22408 7.224071 l -18.28459,0.12556 c -17.24284,0.11841 -30.527664,0.11289 -37.70313,-0.0156 z m 1.56962,-4.210901 c 0.464481,-0.24858 0.934471,-1.15354 0.934471,-1.7993 0,-0.67295 -1.112925,-1.78587 -1.785874,-1.78587 -0.645761,0 -1.550715,0.46999 -1.799296,0.93447 -0.883378,1.6506 1.000093,3.534074 2.650699,2.6507 z m 4.950468,-0.56388 c 0.951931,-1.04479 0.514075,-2.55537 -0.873427,-3.01328 -1.189503,-0.39258 -2.392156,0.54713 -2.380607,1.86011 0.007,0.79158 0.282453,1.2189 1.051319,1.63074 0.743598,0.3983 1.567437,0.21968 2.202715,-0.47757 z m 4.460072,0.0919 c 0.95628,-0.80466 0.95809,-2.0175 0.004,-2.90606 -1.033,-0.96239 -3.01349,-0.0972 -3.05407,1.3342 -0.0485,1.70993 1.77111,2.647754 3.04973,1.57186 z m 4.95662,-0.26383 c 0.9172,-0.9172 0.72582,-2.36555 -0.38873,-2.9419 -1.40864,-0.72844 -2.8386,0.1776 -2.8386,1.79858 0,0.90156 0.88511,1.69574 1.88988,1.69574 0.61568,0 0.9042,-0.11917 1.33745,-0.55242 z m 4.5375,0.0652 c 1.27872,-1.15722 0.50532,-3.29252 -1.19253,-3.29252 -0.93767,0 -1.58545,0.43411 -1.85173,1.24093 -0.31989,0.96928 0.12087,1.96983 1.04356,2.36897 0.52526,0.22721 1.58463,0.0592 2.0007,-0.31738 z m 4.55936,-0.24937 c 0.5072,-0.45318 0.6129,-0.68466 0.6129,-1.34226 0,-0.65759 -0.1057,-0.88907 -0.6129,-1.34225 -0.42653,-0.38111 -0.81221,-0.54763 -1.26839,-0.54763 -0.45618,0 -0.84186,0.16652 -1.26839,0.54763 -0.5072,0.45318 -0.6129,0.68466 -0.6129,1.34225 0,0.6576 0.1057,0.88908 0.6129,1.34226 0.82793,0.73976 1.70885,0.73976 2.53678,0 z m 4.73199,-0.17483 c 0.39475,-0.36625 0.51971,-0.65844 0.51971,-1.21521 0,-0.9402 -0.24648,-1.38642 -0.9735,-1.76237 -1.283774,-0.66386 -2.71177,0.23716 -2.71177,1.71104 0,0.95258 0.43384,1.53993 1.307546,1.77022 0.771124,0.20325 1.230204,0.0788 1.858014,-0.50368 z m 4.8149,-0.085 c 0.62409,-0.6241 0.73008,-1.59443 0.25676,-2.35079 -0.97748,-1.56201 -3.41802,-0.89896 -3.41802,0.92862 0,0.92007 0.23783,1.38269 0.90244,1.75542 0.67692,0.37963 1.69634,0.22923 2.25882,-0.33325 z m -33.206586,-3.25777 c 0.686531,-0.35501 0.94116,-0.81523 0.94116,-1.70105 0,-1.34451 -1.619718,-2.25459 -2.845292,-1.59868 -0.977828,0.52332 -1.157348,2.19989 -0.317365,2.96393 0.744276,0.67698 1.376823,0.7726 2.221497,0.3358 z m 4.924447,-0.45597 c 1.178184,-1.17819 0.386215,-3.22734 -1.24732,-3.22734 -0.874004,0 -1.980015,1.00243 -1.980015,1.79458 0,1.71714 2.038133,2.62196 3.227335,1.43276 z m 4.724699,-0.18899 c 0.88815,-0.88815 0.6885,-2.27522 -0.42191,-2.93116 -1.80783,-1.06791 -3.739263,1.44489 -2.253,2.93116 0.77792,0.77791 1.897,0.77791 2.67491,0 z m 4.33838,0.26574 c 1.76698,-0.91374 1.15221,-3.53087 -0.82942,-3.53087 -0.89871,0 -1.43075,0.33639 -1.75342,1.10865 -0.3718,0.88985 -0.0645,1.84604 0.7535,2.34485 0.71857,0.43816 1.10043,0.45431 1.82934,0.0774 z m 5.11103,-0.45473 c 0.79882,-0.79882 0.76641,-1.72823 -0.0901,-2.58477 -1.24472,-1.24472 -3.12272,-0.46001 -3.133,1.3091 -0.01,1.65952 2.03145,2.46735 3.22313,1.27567 z m 4.56842,-0.20604 c 0.70571,-0.77454 0.70113,-1.67837 -0.0125,-2.47712 -0.44327,-0.4961 -0.67028,-0.59572 -1.35761,-0.59572 -0.68732,0 -0.91434,0.0996 -1.3576,0.59572 -0.65489,0.73295 -0.70402,1.64336 -0.1282,2.3754 0.80271,1.02048 1.98064,1.06243 2.85597,0.10172 z m 4.46754,0.0856 c 1.39305,-1.17217 0.64036,-3.28115 -1.17478,-3.2917 -1.012344,-0.006 -1.8281,0.81032 -1.8281,1.82909 0,1.69141 1.72972,2.5339 3.00288,1.46261 z m 4.94916,-0.25755 c 0.91719,-0.9172 0.72581,-2.36555 -0.38873,-2.9419 -0.87995,-0.45504 -1.48176,-0.35717 -2.19605,0.35712 -0.71343,0.71343 -0.81215,1.31611 -0.35908,2.19225 0.36372,0.70336 0.76995,0.93207 1.66819,0.9392 0.55198,0.004 0.85406,-0.12506 1.27567,-0.54667 z"
       id="path5852-6"
       inkscape:connector-curvature="0" />
    <rect
       style="fill:#777777;fill-opacity:1;fill-rule:nonzero;stroke:none;stroke-width:0.24354964;stroke-linecap:round;stroke-linejoin:round;stroke-miterlimit:4;stroke-dasharray:none;stroke-opacity:1"
       id="rect5935-6-3"
       width="55.429935"
       height="2.6849496"
       x="70.130035"
       y="98.462036" />
    <circle
       style="fill:#173dde;fill-opacity:1;fill-rule:nonzero;stroke:#000000;stroke-width:0.35794622;stroke-linecap:round;stroke-linejoin:round;stroke-miterlimit:4;stroke-dasharray:none;stroke-opacity:1"
       id="path5609-3-1-2-6-7"
       cx="71.961555"
       cy="72.488503"
       r="1.6741918" />
    <circle
       style="fill:#173dde;fill-opacity:1;fill-rule:nonzero;stroke:#000000;stroke-width:0.35794622;stroke-linecap:round;stroke-linejoin:round;stroke-miterlimit:4;stroke-dasharray:none;stroke-opacity:1"
       id="path5609-3-1-2-7-62-3"
       cx="76.505157"
       cy="72.354866"
       r="1.6741918" />
    <circle
       style="fill:#173dde;fill-opacity:1;fill-rule:nonzero;stroke:#000000;stroke-width:0.35794622;stroke-linecap:round;stroke-linejoin:round;stroke-miterlimit:4;stroke-dasharray:none;stroke-opacity:1"
       id="path5609-3-1-2-7-8-5-1"
       cx="81.182373"
       cy="72.221222"
       r="1.6741918" />
    <circle
       style="fill:#173dde;fill-opacity:1;fill-rule:nonzero;stroke:#000000;stroke-width:0.35794622;stroke-linecap:round;stroke-linejoin:round;stroke-miterlimit:4;stroke-dasharray:none;stroke-opacity:1"
       id="path5609-3-1-2-7-8-3-79-4"
       cx="85.993225"
       cy="72.087593"
       r="1.6741918" />
    <circle
       style="fill:#173dde;fill-opacity:1;fill-rule:nonzero;stroke:#000000;stroke-width:0.35794622;stroke-linecap:round;stroke-linejoin:round;stroke-miterlimit:4;stroke-dasharray:none;stroke-opacity:1"
       id="path5609-3-1-2-2-3-3"
       cx="90.603615"
       cy="72.020775"
       r="1.6741918" />
    <circle
       style="fill:#173dde;fill-opacity:1;fill-rule:nonzero;stroke:#000000;stroke-width:0.35794622;stroke-linecap:round;stroke-linejoin:round;stroke-miterlimit:4;stroke-dasharray:none;stroke-opacity:1"
       id="path5609-3-1-2-7-9-9-0"
       cx="95.147217"
       cy="71.887146"
       r="1.6741918" />
    <circle
       style="fill:#173dde;fill-opacity:1;fill-rule:nonzero;stroke:#000000;stroke-width:0.35794622;stroke-linecap:round;stroke-linejoin:round;stroke-miterlimit:4;stroke-dasharray:none;stroke-opacity:1"
       id="path5609-3-1-2-7-8-0-8-1"
       cx="99.82444"
       cy="71.753502"
       r="1.6741918" />
    <circle
       style="fill:#173dde;fill-opacity:1;fill-rule:nonzero;stroke:#000000;stroke-width:0.35794622;stroke-linecap:round;stroke-linejoin:round;stroke-miterlimit:4;stroke-dasharray:none;stroke-opacity:1"
       id="path5609-3-1-2-7-8-3-7-6-3"
       cx="104.63528"
       cy="71.619865"
       r="1.6741918" />
    <circle
       style="fill:#173dde;fill-opacity:1;fill-rule:nonzero;stroke:#000000;stroke-width:0.35794622;stroke-linecap:round;stroke-linejoin:round;stroke-miterlimit:4;stroke-dasharray:none;stroke-opacity:1"
       id="path5609-3-1-2-98-6-2"
       cx="72.061783"
       cy="76.931862"
       r="1.6741918" />
    <circle
       style="fill:#173dde;fill-opacity:1;fill-rule:nonzero;stroke:#000000;stroke-width:0.35794622;stroke-linecap:round;stroke-linejoin:round;stroke-miterlimit:4;stroke-dasharray:none;stroke-opacity:1"
       id="path5609-3-1-2-7-6-7-4"
       cx="76.605385"
       cy="76.798233"
       r="1.6741918" />
    <circle
       style="fill:#173dde;fill-opacity:1;fill-rule:nonzero;stroke:#000000;stroke-width:0.35794622;stroke-linecap:round;stroke-linejoin:round;stroke-miterlimit:4;stroke-dasharray:none;stroke-opacity:1"
       id="path5609-3-1-2-7-8-9-3-0"
       cx="81.282608"
       cy="76.664581"
       r="1.6741918" />
    <circle
       style="fill:#173dde;fill-opacity:1;fill-rule:nonzero;stroke:#000000;stroke-width:0.35794622;stroke-linecap:round;stroke-linejoin:round;stroke-miterlimit:4;stroke-dasharray:none;stroke-opacity:1"
       id="path5609-3-1-2-7-8-3-56-3-6"
       cx="86.09346"
       cy="76.530952"
       r="1.6741918" />
    <circle
       style="fill:#173dde;fill-opacity:1;fill-rule:nonzero;stroke:#000000;stroke-width:0.35794622;stroke-linecap:round;stroke-linejoin:round;stroke-miterlimit:4;stroke-dasharray:none;stroke-opacity:1"
       id="path5609-3-1-2-2-9-7-8"
       cx="90.70385"
       cy="76.464127"
       r="1.6741918" />
    <circle
       style="fill:#173dde;fill-opacity:1;fill-rule:nonzero;stroke:#000000;stroke-width:0.35794622;stroke-linecap:round;stroke-linejoin:round;stroke-miterlimit:4;stroke-dasharray:none;stroke-opacity:1"
       id="path5609-3-1-2-7-9-4-9-1"
       cx="95.247444"
       cy="76.330513"
       r="1.6741918" />
    <circle
       style="fill:#173dde;fill-opacity:1;fill-rule:nonzero;stroke:#000000;stroke-width:0.35794622;stroke-linecap:round;stroke-linejoin:round;stroke-miterlimit:4;stroke-dasharray:none;stroke-opacity:1"
       id="path5609-3-1-2-7-8-0-0-7-4"
       cx="99.92466"
       cy="76.196861"
       r="1.6741918" />
    <circle
       style="fill:#173dde;fill-opacity:1;fill-rule:nonzero;stroke:#000000;stroke-width:0.35794622;stroke-linecap:round;stroke-linejoin:round;stroke-miterlimit:4;stroke-dasharray:none;stroke-opacity:1"
       id="path5609-3-1-2-7-8-3-7-4-3-3"
       cx="104.73552"
       cy="76.063217"
       r="1.6741918" />
    <path
       style="fill:#888888;fill-opacity:1;fill-rule:nonzero;stroke:none;stroke-width:0.64285713;stroke-linecap:round;stroke-linejoin:round;stroke-miterlimit:4;stroke-dasharray:none;stroke-opacity:1"
       d="m 71.48475,82.789222 -3.165551,-0.0567 V 75.4797 68.22687 l 2.22061,-0.15372 c 2.801972,-0.19395 47.738741,-0.18349 53.011161,0.0124 l 3.9215,0.14566 v 7.22408 7.224072 l -18.28459,0.12556 c -17.24284,0.11841 -30.527664,0.11289 -37.70313,-0.0156 z m 1.56962,-4.210902 c 0.464481,-0.24858 0.934471,-1.15354 0.934471,-1.7993 0,-0.67295 -1.112925,-1.78587 -1.785874,-1.78587 -0.645761,0 -1.550715,0.46999 -1.799296,0.93447 -0.883378,1.6506 1.000093,3.534074 2.650699,2.6507 z m 4.950468,-0.56388 c 0.951931,-1.04479 0.514075,-2.55537 -0.873427,-3.01328 -1.189503,-0.39258 -2.392156,0.54713 -2.380607,1.86011 0.007,0.79158 0.282453,1.2189 1.051319,1.63074 0.743598,0.3983 1.567437,0.21968 2.202715,-0.47757 z m 4.460072,0.0919 c 0.95628,-0.80466 0.95809,-2.0175 0.004,-2.90606 -1.033,-0.96239 -3.01349,-0.0972 -3.05407,1.3342 -0.0485,1.70993 1.77111,2.647754 3.04973,1.57186 z m 4.95662,-0.26383 c 0.9172,-0.9172 0.72582,-2.36555 -0.38873,-2.9419 -1.40864,-0.72844 -2.8386,0.1776 -2.8386,1.79858 0,0.90156 0.88511,1.69574 1.88988,1.69574 0.61568,0 0.9042,-0.11917 1.33745,-0.55242 z m 4.5375,0.0652 c 1.27872,-1.15722 0.50532,-3.29252 -1.19253,-3.29252 -0.93767,0 -1.58545,0.43411 -1.85173,1.24093 -0.31989,0.96928 0.12087,1.96983 1.04356,2.36897 0.52526,0.22721 1.58463,0.0592 2.0007,-0.31738 z m 4.55936,-0.24937 c 0.5072,-0.45318 0.6129,-0.68466 0.6129,-1.34226 0,-0.65759 -0.1057,-0.88907 -0.6129,-1.34225 C 96.09186,74.59272 95.70618,74.4262 95.25,74.4262 c -0.45618,0 -0.84186,0.16652 -1.26839,0.54763 -0.5072,0.45318 -0.6129,0.68466 -0.6129,1.34225 0,0.6576 0.1057,0.88908 0.6129,1.34226 0.82793,0.73976 1.70885,0.73976 2.53678,0 z m 4.73199,-0.17483 c 0.39475,-0.36625 0.51971,-0.65844 0.51971,-1.21521 0,-0.9402 -0.24648,-1.38642 -0.9735,-1.76237 -1.28377,-0.66386 -2.71177,0.23716 -2.71177,1.71104 0,0.95258 0.43384,1.53993 1.30755,1.77022 0.77112,0.20325 1.2302,0.0788 1.85801,-0.50368 z m 4.8149,-0.085 c 0.62409,-0.6241 0.73008,-1.59443 0.25676,-2.35079 -0.97748,-1.56201 -3.41802,-0.89896 -3.41802,0.92862 0,0.92007 0.23783,1.38269 0.90244,1.75542 0.67692,0.37963 1.69634,0.22923 2.25882,-0.33325 z M 72.858694,74.14074 c 0.686531,-0.35501 0.94116,-0.81523 0.94116,-1.70105 0,-1.34451 -1.619718,-2.25459 -2.845292,-1.59868 -0.977828,0.52332 -1.157348,2.19989 -0.317365,2.96393 0.744276,0.67698 1.376823,0.7726 2.221497,0.3358 z m 4.924447,-0.45597 c 1.178184,-1.17819 0.386215,-3.22734 -1.24732,-3.22734 -0.874004,0 -1.980015,1.00243 -1.980015,1.79458 0,1.71714 2.038133,2.62196 3.227335,1.43276 z m 4.724699,-0.18899 c 0.88815,-0.88815 0.6885,-2.27522 -0.42191,-2.93116 -1.80783,-1.06791 -3.739263,1.44489 -2.253,2.93116 0.77792,0.77791 1.897,0.77791 2.67491,0 z m 4.33838,0.26574 c 1.76698,-0.91374 1.15221,-3.53087 -0.82942,-3.53087 -0.89871,0 -1.43075,0.33639 -1.75342,1.10865 -0.3718,0.88985 -0.0645,1.84604 0.7535,2.34485 0.71857,0.43816 1.10043,0.45431 1.82934,0.0774 z m 5.11103,-0.45473 c 0.79882,-0.79882 0.76641,-1.72823 -0.0901,-2.58477 -1.24472,-1.24472 -3.12272,-0.46001 -3.133,1.3091 -0.01,1.65952 2.03145,2.46735 3.22313,1.27567 z m 4.56842,-0.20604 c 0.70571,-0.77454 0.70113,-1.67837 -0.0125,-2.47712 -0.44327,-0.4961 -0.67028,-0.59572 -1.35761,-0.59572 -0.68732,0 -0.91434,0.0996 -1.3576,0.59572 -0.65489,0.73295 -0.70402,1.64336 -0.1282,2.3754 0.80271,1.02048 1.98064,1.06243 2.85597,0.10172 z m 4.46754,0.0856 c 1.39305,-1.17217 0.64036,-3.28115 -1.17478,-3.2917 -1.01234,-0.006 -1.8281,0.81032 -1.8281,1.82909 0,1.69141 1.72972,2.5339 3.00288,1.46261 z m 4.94916,-0.25755 c 0.91719,-0.9172 0.72581,-2.36555 -0.38873,-2.9419 -0.87995,-0.45504 -1.48176,-0.35717 -2.19605,0.35712 -0.71343,0.71343 -0.81215,1.31611 -0.35908,2.19225 0.36372,0.70336 0.76995,0.93207 1.66819,0.9392 0.55198,0.004 0.85406,-0.12506 1.27567,-0.54667 z"
       id="path5852-6-2"
       inkscape:connector-curvature="0" />
    <rect
       style="fill:#777777;fill-opacity:1;fill-rule:nonzero;stroke:none;stroke-width:0.24354964;stroke-linecap:round;stroke-linejoin:round;stroke-miterlimit:4;stroke-dasharray:none;stroke-opacity:1"
       id="rect5935-6-3-7"
       width="55.429939"
       height="2.6849496"
       x="69.774673"
       y="78.765945" />
    <circle
       style="fill:#173dde;fill-opacity:1;fill-rule:nonzero;stroke:#000000;stroke-width:0.35794622;stroke-linecap:round;stroke-linejoin:round;stroke-miterlimit:4;stroke-dasharray:none;stroke-opacity:1"
       id="path5609-3-1-2-6-3"
       cx="72.31485"
       cy="50.105312"
       r="1.6741918" />
    <circle
       style="fill:#173dde;fill-opacity:1;fill-rule:nonzero;stroke:#000000;stroke-width:0.35794622;stroke-linecap:round;stroke-linejoin:round;stroke-miterlimit:4;stroke-dasharray:none;stroke-opacity:1"
       id="path5609-3-1-2-7-62-6"
       cx="76.858452"
       cy="49.971676"
       r="1.6741918" />
    <circle
       style="fill:#173dde;fill-opacity:1;fill-rule:nonzero;stroke:#000000;stroke-width:0.35794622;stroke-linecap:round;stroke-linejoin:round;stroke-miterlimit:4;stroke-dasharray:none;stroke-opacity:1"
       id="path5609-3-1-2-7-8-5-2"
       cx="81.535667"
       cy="49.838032"
       r="1.6741918" />
    <circle
       style="fill:#173dde;fill-opacity:1;fill-rule:nonzero;stroke:#000000;stroke-width:0.35794622;stroke-linecap:round;stroke-linejoin:round;stroke-miterlimit:4;stroke-dasharray:none;stroke-opacity:1"
       id="path5609-3-1-2-7-8-3-79-8"
       cx="86.346519"
       cy="49.704403"
       r="1.6741918" />
    <circle
       style="fill:#173dde;fill-opacity:1;fill-rule:nonzero;stroke:#000000;stroke-width:0.35794622;stroke-linecap:round;stroke-linejoin:round;stroke-miterlimit:4;stroke-dasharray:none;stroke-opacity:1"
       id="path5609-3-1-2-2-3-6"
       cx="90.956909"
       cy="49.637585"
       r="1.6741918" />
    <circle
       style="fill:#173dde;fill-opacity:1;fill-rule:nonzero;stroke:#000000;stroke-width:0.35794622;stroke-linecap:round;stroke-linejoin:round;stroke-miterlimit:4;stroke-dasharray:none;stroke-opacity:1"
       id="path5609-3-1-2-7-9-9-8"
       cx="95.500504"
       cy="49.503956"
       r="1.6741918" />
    <circle
       style="fill:#173dde;fill-opacity:1;fill-rule:nonzero;stroke:#000000;stroke-width:0.35794622;stroke-linecap:round;stroke-linejoin:round;stroke-miterlimit:4;stroke-dasharray:none;stroke-opacity:1"
       id="path5609-3-1-2-7-8-0-8-4"
       cx="100.17773"
       cy="49.370312"
       r="1.6741918" />
    <circle
       style="fill:#173dde;fill-opacity:1;fill-rule:nonzero;stroke:#000000;stroke-width:0.35794622;stroke-linecap:round;stroke-linejoin:round;stroke-miterlimit:4;stroke-dasharray:none;stroke-opacity:1"
       id="path5609-3-1-2-7-8-3-7-6-6"
       cx="104.98856"
       cy="49.236675"
       r="1.6741918" />
    <circle
       style="fill:#173dde;fill-opacity:1;fill-rule:nonzero;stroke:#000000;stroke-width:0.35794622;stroke-linecap:round;stroke-linejoin:round;stroke-miterlimit:4;stroke-dasharray:none;stroke-opacity:1"
       id="path5609-3-1-2-98-6-4"
       cx="72.415077"
       cy="54.548672"
       r="1.6741918" />
    <circle
       style="fill:#173dde;fill-opacity:1;fill-rule:nonzero;stroke:#000000;stroke-width:0.35794622;stroke-linecap:round;stroke-linejoin:round;stroke-miterlimit:4;stroke-dasharray:none;stroke-opacity:1"
       id="path5609-3-1-2-7-6-7-43"
       cx="76.958679"
       cy="54.415043"
       r="1.6741918" />
    <circle
       style="fill:#173dde;fill-opacity:1;fill-rule:nonzero;stroke:#000000;stroke-width:0.35794622;stroke-linecap:round;stroke-linejoin:round;stroke-miterlimit:4;stroke-dasharray:none;stroke-opacity:1"
       id="path5609-3-1-2-7-8-9-3-6"
       cx="81.635895"
       cy="54.281391"
       r="1.6741918" />
    <circle
       style="fill:#173dde;fill-opacity:1;fill-rule:nonzero;stroke:#000000;stroke-width:0.35794622;stroke-linecap:round;stroke-linejoin:round;stroke-miterlimit:4;stroke-dasharray:none;stroke-opacity:1"
       id="path5609-3-1-2-7-8-3-56-3-0"
       cx="86.446747"
       cy="54.147762"
       r="1.6741918" />
    <circle
       style="fill:#173dde;fill-opacity:1;fill-rule:nonzero;stroke:#000000;stroke-width:0.35794622;stroke-linecap:round;stroke-linejoin:round;stroke-miterlimit:4;stroke-dasharray:none;stroke-opacity:1"
       id="path5609-3-1-2-2-9-7-9"
       cx="91.057137"
       cy="54.080936"
       r="1.6741918" />
    <circle
       style="fill:#173dde;fill-opacity:1;fill-rule:nonzero;stroke:#000000;stroke-width:0.35794622;stroke-linecap:round;stroke-linejoin:round;stroke-miterlimit:4;stroke-dasharray:none;stroke-opacity:1"
       id="path5609-3-1-2-7-9-4-9-9"
       cx="95.600739"
       cy="53.947323"
       r="1.6741918" />
    <circle
       style="fill:#173dde;fill-opacity:1;fill-rule:nonzero;stroke:#000000;stroke-width:0.35794622;stroke-linecap:round;stroke-linejoin:round;stroke-miterlimit:4;stroke-dasharray:none;stroke-opacity:1"
       id="path5609-3-1-2-7-8-0-0-7-8"
       cx="100.27795"
       cy="53.813671"
       r="1.6741918" />
    <circle
       style="fill:#173dde;fill-opacity:1;fill-rule:nonzero;stroke:#000000;stroke-width:0.35794622;stroke-linecap:round;stroke-linejoin:round;stroke-miterlimit:4;stroke-dasharray:none;stroke-opacity:1"
       id="path5609-3-1-2-7-8-3-7-4-3-8"
       cx="105.08881"
       cy="53.680027"
       r="1.6741918" />
    <path
       style="fill:#888888;fill-opacity:1;fill-rule:nonzero;stroke:none;stroke-width:0.64285713;stroke-linecap:round;stroke-linejoin:round;stroke-miterlimit:4;stroke-dasharray:none;stroke-opacity:1"
       d="m 71.838038,60.406036 -3.165551,-0.0567 v -7.252825 -7.25283 l 2.22061,-0.15372 c 2.801972,-0.19395 47.738743,-0.18349 53.011163,0.0124 l 3.9215,0.14566 v 7.22408 7.224075 l -18.28459,0.12556 c -17.242842,0.11841 -30.527666,0.11289 -37.703132,-0.0156 z m 1.56962,-4.210904 c 0.464481,-0.24858 0.934471,-1.153541 0.934471,-1.799301 0,-0.67295 -1.112925,-1.78587 -1.785874,-1.78587 -0.645761,0 -1.550715,0.46999 -1.799296,0.93447 -0.883378,1.6506 1.000093,3.534075 2.650699,2.650701 z m 4.950468,-0.56388 c 0.951931,-1.044791 0.514075,-2.555371 -0.873427,-3.013281 -1.189503,-0.39258 -2.392156,0.54713 -2.380607,1.86011 0.007,0.79158 0.282453,1.218901 1.051319,1.630741 0.743598,0.3983 1.567437,0.21968 2.202715,-0.47757 z m 4.460072,0.0919 c 0.95628,-0.804661 0.95809,-2.017501 0.004,-2.906061 -1.033,-0.96239 -3.01349,-0.0972 -3.05407,1.3342 -0.0485,1.709931 1.77111,2.647755 3.04973,1.571861 z m 4.95662,-0.263831 c 0.9172,-0.9172 0.72582,-2.36555 -0.38873,-2.9419 -1.40864,-0.72844 -2.8386,0.1776 -2.8386,1.79858 0,0.90156 0.88511,1.695741 1.88988,1.695741 0.61568,0 0.9042,-0.11917 1.33745,-0.552421 z m 4.5375,0.0652 c 1.27872,-1.15722 0.50532,-3.29252 -1.19253,-3.29252 -0.93767,0 -1.58545,0.43411 -1.85173,1.24093 -0.31989,0.96928 0.12087,1.96983 1.04356,2.368971 0.52526,0.22721 1.58463,0.0592 2.0007,-0.317381 z m 4.55936,-0.24937 c 0.5072,-0.45318 0.6129,-0.68466 0.6129,-1.34226 0,-0.65759 -0.1057,-0.88907 -0.6129,-1.34225 -0.42653,-0.38111 -0.81221,-0.54763 -1.26839,-0.54763 -0.45618,0 -0.84186,0.16652 -1.26839,0.54763 -0.5072,0.45318 -0.6129,0.68466 -0.6129,1.34225 0,0.6576 0.1057,0.88908 0.6129,1.34226 0.82793,0.739761 1.70885,0.739761 2.53678,0 z m 4.731992,-0.17483 c 0.39475,-0.36625 0.51971,-0.65844 0.51971,-1.21521 0,-0.9402 -0.24648,-1.38642 -0.9735,-1.76237 -1.283772,-0.66386 -2.711772,0.23716 -2.711772,1.71104 0,0.95258 0.43384,1.53993 1.30755,1.770221 0.771122,0.20325 1.230202,0.0788 1.858012,-0.503681 z m 4.8149,-0.085 c 0.62409,-0.6241 0.73008,-1.59443 0.25676,-2.350789 -0.97748,-1.562011 -3.41802,-0.89896 -3.41802,0.92862 0,0.92007 0.23783,1.38269 0.90244,1.755419 0.67692,0.379631 1.69634,0.229231 2.25882,-0.33325 z m -33.206588,-3.25777 c 0.686531,-0.35501 0.94116,-0.81523 0.94116,-1.70105 0,-1.34451 -1.619718,-2.25459 -2.845292,-1.59868 -0.977828,0.52332 -1.157348,2.19989 -0.317365,2.96393 0.744276,0.67698 1.376823,0.7726 2.221497,0.3358 z m 4.924447,-0.45597 c 1.178184,-1.17819 0.386215,-3.22734 -1.24732,-3.22734 -0.874004,0 -1.980015,1.00243 -1.980015,1.79458 0,1.71714 2.038133,2.62196 3.227335,1.43276 z m 4.724699,-0.18899 c 0.88815,-0.88815 0.6885,-2.27522 -0.42191,-2.93116 -1.80783,-1.06791 -3.739263,1.44489 -2.253,2.93116 0.77792,0.77791 1.897,0.77791 2.67491,0 z m 4.33838,0.26574 c 1.76698,-0.91374 1.15221,-3.53087 -0.82942,-3.53087 -0.89871,0 -1.43075,0.33639 -1.75342,1.10865 -0.3718,0.88985 -0.0645,1.84604 0.7535,2.34485 0.71857,0.43816 1.10043,0.45431 1.82934,0.0774 z m 5.11103,-0.45473 c 0.79882,-0.79882 0.76641,-1.72823 -0.0901,-2.58477 -1.24472,-1.24472 -3.12272,-0.46001 -3.133,1.3091 -0.01,1.65952 2.03145,2.46735 3.22313,1.27567 z m 4.56842,-0.20604 c 0.70571,-0.77454 0.70113,-1.67837 -0.0125,-2.47712 -0.44327,-0.4961 -0.67028,-0.59572 -1.35761,-0.59572 -0.68732,0 -0.91434,0.0996 -1.3576,0.59572 -0.65489,0.73295 -0.70402,1.64336 -0.1282,2.3754 0.80271,1.02048 1.98064,1.06243 2.85597,0.10172 z m 4.467542,0.0856 c 1.39305,-1.17217 0.64036,-3.28115 -1.17478,-3.2917 -1.012342,-0.006 -1.828102,0.81032 -1.828102,1.82909 0,1.69141 1.729722,2.5339 3.002882,1.46261 z m 4.94916,-0.25755 c 0.91719,-0.9172 0.72581,-2.36555 -0.38873,-2.9419 -0.87995,-0.45504 -1.48176,-0.35717 -2.19605,0.35712 -0.71343,0.71343 -0.81215,1.31611 -0.35908,2.19225 0.36372,0.703361 0.76995,0.93207 1.66819,0.9392 0.55198,0.004 0.85406,-0.125059 1.27567,-0.54667 z"
       id="path5852-6-8"
       inkscape:connector-curvature="0" />
    <rect
       style="fill:#777777;fill-opacity:1;fill-rule:nonzero;stroke:none;stroke-width:0.24354964;stroke-linecap:round;stroke-linejoin:round;stroke-miterlimit:4;stroke-dasharray:none;stroke-opacity:1"
       id="rect5935-6-3-8"
       width="55.429939"
       height="2.6849496"
       x="70.127968"
       y="56.382755" />
    <rect
       style="fill:#555555;fill-opacity:1;fill-rule:nonzero;stroke:none;stroke-width:0.54971689;stroke-linecap:round;stroke-linejoin:round;stroke-miterlimit:4;stroke-dasharray:none;stroke-opacity:1"
       id="rect5935-4"
       width="60.34362"
       height="12.564704"
       x="68.480301"
       y="127.97783" />
    <rect
       style="fill:#333333;fill-opacity:1;fill-rule:nonzero;stroke:none;stroke-width:0.34957814;stroke-linecap:round;stroke-linejoin:round;stroke-miterlimit:4;stroke-dasharray:none;stroke-opacity:1"
       id="rect5935-4-4"
       width="60.34362"
       height="5.0811572"
       x="68.480301"
       y="127.97783" />
  </g>
</svg>
